<?xml version="1.0" encoding="UTF-8"?>
<svg id="Layer_2" data-name="Layer 2" xmlns="http://www.w3.org/2000/svg" viewBox="0 0 196.4 256.78">
  <defs>
    <style>
      .cls-1 {
        fill: #519acb;
        stroke-width: 0px;
      }
    </style>
  </defs>
  <g id="Layer_1-2" data-name="Layer 1">
    <g>
      <path class="cls-1" d="M196.4.29c-2.01,1.27-4.01,2.57-6.04,3.82-19.78,12.22-39.16,25.01-57.61,39.18-14.67,11.27-28.61,23.36-40.96,37.19-11.1,12.42-20.61,25.89-26.88,41.47-4.46,11.06-6.77,22.52-6.78,34.42,0,7.75,1.24,15.36,3.12,22.87.08.31.15.61-.1,1.16-.54-.66-1.12-1.29-1.61-1.99-14.49-20.43-16.95-42.31-7.81-65.53,4.6-11.67,11.75-21.72,20.02-31.03,17.35-19.51,38.01-34.96,60.05-48.69,20.15-12.54,41.21-23.34,63.06-32.59.46-.19.92-.38,1.38-.57.05.1.1.19.15.29Z"/>
      <path class="cls-1" d="M84.99,206.55c-5.94-7.14-10.31-14.69-13.38-22.97-7.72-20.8-5.79-41,4.14-60.57,7.74-15.23,18.93-27.72,31.64-38.93,16.39-14.45,34.66-26.13,53.81-36.52,6.19-3.36,12.49-6.54,18.9-9.51-4.89,3.55-9.84,7.01-14.65,10.66-19.21,14.55-37.11,30.52-52.68,48.97-12.61,14.95-23.39,31.04-29.75,49.73-4.19,12.29-6.03,24.9-4.13,37.86.53,3.61,1.35,7.19,2.35,10.7.99,3.44,2.38,6.76,3.76,10.59Z"/>
      <path class="cls-1" d="M143.43,94.12c-14.76,15.16-26.79,31.8-35.42,50.78-7.15,15.73-11.42,32.16-11.26,49.55.04,4.38.4,8.77.97,13.11.57,4.32,1.59,8.59,2.48,13.26-1.41-2.29-2.74-4.3-3.91-6.4-6.69-12.05-10.09-24.97-9.67-38.76.46-15.28,5.66-29.05,14.19-41.61,11.07-16.31,25.78-28.81,41.97-39.72.1-.07.23-.08.66-.21Z"/>
      <path class="cls-1" d="M5.7,88.41c8.64-10.31,17.8-13.51,29.34-9.36,5.42,1.95,10.45,4.96,15.85,7.59-12.67,14.48-15.33,31.98-15.3,50.48-.7-2.64-1.64-5.25-2.06-7.94-.84-5.42-1.31-10.9-2.09-16.33-1.06-7.4-3.73-14.01-9.91-18.73-4.28-3.26-9.14-5-14.46-5.54-.37-.04-.75-.09-1.38-.17Z"/>
      <path class="cls-1" d="M132.57,255.78c2.04-8.3,4.03-16.41,6.02-24.51.16-.63.33-1.27.49-1.9,1.11-4.37.39-3.71,4.86-3.71,3.72,0,7.45.05,11.17.27,2.77.17,5.19,1.18,5.88,4.26.71,3.19-.22,5.94-2.66,8.14-.48.44-1.2.67-1.55,1.17-.28.42-.45,1.33-.2,1.65,3.39,4.29,2.76,9.33-1.99,12.5-1.78,1.18-4.04,2.09-6.15,2.23-4.95.34-9.94.15-14.91.17-.24,0-.49-.14-.96-.28ZM140.1,251.08c3.52-.28,6.5-.31,9.4-.81,1.81-.31,2.95-2.54,2.65-4.3-.35-2.03-1.89-2.49-3.62-2.55-1.76-.06-3.52-.09-5.27.03-.57.04-1.46.49-1.6.94-.59,1.97-.96,4.01-1.56,6.69ZM147.32,238.21c.91,0,1.84.08,2.74-.02,2.32-.25,3.76-1.56,4.2-3.73.38-1.87-.23-2.89-2.14-3.22-1.28-.22-2.59-.28-3.89-.3-3.3-.04-3.34-.02-4.13,3.2-1.17,4.79-1.07,4.04,3.21,4.06Z"/>
      <path class="cls-1" d="M38.23,224.48c-.95,3.96-1.82,7.57-2.68,11.18.19.1.38.21.56.31.66-.36,1.28-.85,1.98-1.07,2.09-.66,4.2-1.6,6.34-1.72,4.64-.28,6.93,2.62,5.93,7.13-.78,3.57-1.69,7.1-2.54,10.65-.02.06-.04.13-.05.19-1.41,5.45-2.13,5.88-8.27,4.68.55-2.44,1.09-4.89,1.67-7.33.51-2.16,1.24-4.29,1.53-6.48.15-1.16-.03-2.99-.77-3.49-.88-.6-2.67-.48-3.77,0-2.21.96-3.75,2.7-4.31,5.23-.79,3.57-1.79,7.09-2.62,10.65-.29,1.23-.86,1.79-2.15,1.73-1.68-.07-3.36-.02-5.44-.02.84-3.48,1.6-6.61,2.36-9.75,1.59-6.53,3.23-13.05,4.73-19.61.41-1.8,1.17-2.55,3.05-2.32,1.34.17,2.72.03,4.44.03Z"/>
      <path class="cls-1" d="M171.17,256.78c-1.71-.37-3.61-.39-5.08-1.2-1.57-.86-3.08-2.25-3.99-3.78-1.58-2.66-1.07-3.41,1.92-4.05.64-.14,1.31-.45,1.91-.36.62.1,1.49.45,1.71.94.75,1.7,2.04,2.7,3.76,2.71,1.92.01,3.9-.26,5.75-.76,1.49-.4,2.55-1.81,2.2-3.3-.22-.95-1.42-1.93-2.41-2.39-1.39-.65-3-.85-4.53-1.19-6.32-1.41-8.37-6.39-4.87-11.88,3.11-4.87,10.62-7.47,15.98-5.38,1.22.48,2.42,1.38,3.26,2.39,2.15,2.59,1.61,3.87-1.55,4.8-1.75.52-2.86.66-4.06-1.3-1.54-2.52-7.02-1.6-8.24,1.11-.72,1.61-.03,2.99,2.09,3.7,2.1.71,4.29,1.15,6.41,1.84,3.17,1.02,5.24,3.62,4.92,6.31-.4,3.37-1.81,6.26-4.61,8.35-3.12,2.33-6.68,3.21-10.56,3.44Z"/>
      <path class="cls-1" d="M105.24,256.1c1.3-5.15,2.48-9.75,3.63-14.36,1.2-4.81,2.32-9.65,3.59-14.44.17-.64.99-1.57,1.51-1.57,4.57.01,9.16-.04,13.7.43,3.8.39,6.34,2.91,6.41,6.08.08,3.83-1.42,7.15-4.51,9.58-2.92,2.29-6.33,2.93-9.96,2.92-5.24-.01-5.24.03-6.57,5.12-.4,1.52-.85,3.02-1.14,4.56-.24,1.29-.93,1.74-2.18,1.69-1.35-.06-2.7-.01-4.49-.01ZM119.68,239.58c1.7-.36,3.46-.53,5.08-1.12,1.64-.59,2.66-2.81,2.39-4.52-.29-1.88-1.79-2.22-3.3-2.48-.64-.11-1.29-.15-1.94-.15-5.21,0-4.14-.33-5.34,4.15-1.02,3.82-.94,3.84,3.1,4.11Z"/>
      <path class="cls-1" d="M55.61,239.96c2.57-4.35,6.15-6.42,10.63-6.72,2.78-.18,5.64-.06,8.38.4,3.81.63,5.18,3.08,4.26,6.91-.85,3.55-1.79,7.09-2.61,10.65-.36,1.57-.51,3.19-.81,5.14-1.74,0-3.74,0-5.73,0-.19,0-.48-.05-.54-.16-1.18-2.35-2.58-.54-3.99-.32-2.74.43-5.54.82-8.3.74-2.25-.07-4.22-1.35-4.79-3.72-.66-2.72.35-5.08,2.53-6.78,2.75-2.15,6.03-3.07,9.44-3.51,1.81-.24,3.66-.2,5.46-.51.74-.13,1.74-.68,2-1.3.47-1.11.02-2.24-1.27-2.67-2.55-.85-5.21-.95-7.18,1-1.49,1.47-2.87,1.75-4.71,1.27-.8-.21-1.64-.25-2.76-.4ZM63.17,253.02c3.5-.45,6.57-3.12,6.96-6.39.05-.41-.74-1.35-.98-1.3-2.52.52-5.08,1-7.47,1.89-1.46.54-2.49,2.15-1.66,3.67.54.99,2.07,1.44,3.15,2.13Z"/>
      <path class="cls-1" d="M27.4,224.76c-.77,5.35-.77,5.33-5.97,5.36-5.23.03-4.3-.59-5.55,4.41-1.67,6.65-3.3,13.3-4.86,19.98-.33,1.4-.92,2.01-2.38,1.88-1.17-.11-2.36-.09-3.53,0-1.82.14-2.09-.64-1.68-2.24,1.72-6.77,3.34-13.57,5.02-20.35.91-3.68.94-3.67-2.81-3.68-1.75,0-3.49,0-5.63,0,.48-1.82.8-3.33,1.31-4.76.14-.39.86-.82,1.32-.83,8.11-.04,16.22,0,24.34.01.11,0,.23.11.43.22Z"/>
      <path class="cls-1" d="M79.93,256.13c.68-2.78,1.28-5.23,1.87-7.67,1.07-4.43,2.1-8.88,3.23-13.29.15-.58.75-1.45,1.2-1.49,1.98-.16,3.99-.07,6.26-.07-.78,3.22-1.49,6.11-2.2,9.01-.94,3.86-1.95,7.7-2.79,11.58-.33,1.55-1.08,2.04-2.56,1.96-1.54-.09-3.09-.02-5.01-.02Z"/>
      <path class="cls-1" d="M94.17,225.63c.14.51.18.57.17.63-1,4.86-.66,3.82-4.82,3.94-.85.02-1.7-.02-2.55-.07-.17,0-.34-.16-.48-.24-.04-.1-.09-.16-.08-.22.47-3.96.57-4.04,4.52-4.04h3.24Z"/>
    </g>
  </g>
</svg>