<?xml version="1.0" encoding="UTF-8"?>
<svg id="Layer_2" data-name="Layer 2" xmlns="http://www.w3.org/2000/svg" viewBox="0 0 551.3 256.03">
  <defs>
    <style>
      .cls-1 {
        fill: #519acb;
        stroke-width: 0px;
      }
    </style>
  </defs>
  <g id="Layer_1-2" data-name="Layer 1">
    <g>
      <path class="cls-1" d="M551.3,197.07c-.41,2.42-.73,4.86-1.24,7.26-3.72,17.29-18.35,31.03-35.91,33.7-2.39.36-4.83.57-7.24.57-33.71.06-67.42.05-101.12.09-12.3.01-24.59.09-36.89.13-.59,0-1.17,0-2.14,0,1.67-2.01,3.08-3.7,4.5-5.4,2.43-2.91,4.93-5.77,7.28-8.74.87-1.09,1.75-1.53,3.16-1.53,41.65.05,83.31.06,124.96.06,13.86,0,25.32-9.1,28.42-22.55,3.79-16.4-8.2-33.59-24.93-35.4-4.56-.49-9.2-.17-13.81-.2-8.96-.05-16.97-2.79-23.53-8.93-9.79-9.16-13.82-20.42-10.26-33.52,3.58-13.18,12.47-21.45,25.77-24.72,2.81-.69,5.81-.89,8.72-.91,12.65-.09,25.31-.05,37.96-.02,1.51,0,3.05.11,4.52.43,4.78,1.04,7.83,4.38,8.65,9.4.29,1.78.39,3.59.59,5.62-.82,0-1.46,0-2.1,0-16.96,0-33.91-.02-50.87,0-9.89.01-18.41,7.98-18.99,17.69-.56,9.33,7.35,18.63,16.71,19.3,5.04.36,10.11.1,15.17.29,11.44.43,21.18,4.87,29.22,12.95,7.82,7.85,12.21,17.35,13.12,28.42.03.39.19.76.29,1.14v4.86Z"/>
      <path class="cls-1" d="M182.13,80.11c.74-3.13,1.42-6.07,2.12-9,5.55-22.98,11.12-45.96,16.63-68.95C201.27.55,201.88,0,203.58,0c114.9.04,229.8.04,344.7.04.59,0,1.18,0,2,0-.91,3.76-1.75,7.28-2.6,10.8-5.41,22.44-10.84,44.88-16.21,67.34-.35,1.47-.91,1.98-2.5,1.98-114.95-.05-229.9-.04-344.85-.04h-1.99ZM425.91,66.9c.51.12.75.22.99.22,8.74-.15,17.51-.02,26.23-.55,8.02-.49,14.19-6.12,16.18-13.83,1.11-4.31-.1-7.87-3.58-10.65-.32-.26-.63-.54-1.01-.87.39-.25.63-.42.89-.57,4.49-2.61,7.16-6.35,7.63-11.66.46-5.14-1.98-9.31-6.93-10.67-2.4-.66-4.97-.93-7.48-.98-6.32-.14-12.65,0-18.98-.1-1.42-.02-1.9.53-2.2,1.78-3.11,12.74-6.26,25.47-9.39,38.2-.78,3.17-1.54,6.35-2.35,9.68ZM505.29,32.26c3.34-.83,6.62-1.62,9.87-2.51.33-.09.7-.8.69-1.21-.1-4.9-3.16-9.04-7.88-10.61-4.34-1.45-8.79-1.48-13.13-.22-7.76,2.25-13.55,6.7-15.45,15.03-1.37,6.03.99,10.54,6.75,12.85,1.44.58,3,.87,4.5,1.32,2.75.83,5.53,1.55,8.21,2.55,1.66.63,1.94,1.76,1.41,3.47-.53,1.72-1.65,2.95-3.32,3.48-1.67.53-3.42.94-5.16,1.1-4.82.45-8.19-1.11-8.7-5.9-.03-.24-.11-.47-.21-.88-3.51.79-6.94,1.54-10.36,2.36-.3.07-.69.63-.69.95.12,5.93,2.89,10.66,8.83,12.57,6.42,2.06,12.8,1.43,18.98-.99,6.37-2.49,10.9-6.82,12.71-13.64,1.78-6.71-.78-11.69-7.32-14.02-1.99-.71-4.05-1.24-6.08-1.85-1.88-.56-3.84-.94-5.63-1.72-2.48-1.09-2.76-3.29-.87-5.26,3.95-4.12,10.62-2.8,12.56,2.5.05.14.12.27.27.64ZM341.23,67.23c-1.22-4.08-1.22-4.2-.17-8.45,1.42-5.78,2.84-11.56,4.22-17.35,1.47-6.15-.85-9.99-6.97-11.61-.15-.04-.3-.06-.44-.1-4.84-1.1-9.73-1.18-14.62-.51-5.05.69-9.58,2.6-13.06,6.43-1.49,1.64-2.65,3.58-3.96,5.38.11.16.23.31.34.47,3.25.39,6.49.75,9.73,1.18.95.13,1.42-.19,1.92-.99,2.39-3.81,8.41-5.36,12.44-3.28.4.21.79.47,1.09.8.93,1.03.62,2.24.13,3.26-.19.4-1.13.55-1.75.62-4.56.54-9.16.78-13.67,1.6-4.62.84-8.96,2.66-12.31,6.12-2.81,2.91-3.95,6.5-2.94,10.47.97,3.83,3.95,5.7,7.59,6.34,6.06,1.06,11.99.64,17.43-2.65.23-.14.51-.21.85-.34.19.63.26,1.21.53,1.66.23.38.68.88,1.04.89,4.14.06,8.28.04,12.57.04ZM281.58,16.79c-3.8,0-7.23.04-10.66-.02-1.2-.02-1.63.46-1.91,1.59-3.47,14.2-7,28.4-10.5,42.59-.49,1.99-.93,3.99-1.44,6.15.75.05,1.24.11,1.73.11,3.09,0,6.18-.06,9.26.03,1.27.04,1.78-.42,2.06-1.62,1.41-6.04,2.84-12.08,4.34-18.09,1.03-4.15,3.72-6.91,7.69-8.31,3.17-1.13,5.34.76,4.63,4.02-1.22,5.56-2.59,11.1-3.9,16.64-.55,2.34-1.11,4.68-1.66,7,.3.15.43.27.56.27,3.74.02,7.49.07,11.23,0,.36,0,.92-.61,1.03-1.03,2.07-8.27,4.2-16.52,6.06-24.84,1.3-5.82-1.54-9.9-7.46-10.99-4.99-.93-9.48.62-13.71,3.16-.44.26-.88.52-1.69,1.01,1.49-6.07,2.86-11.67,4.33-17.66ZM406.08,16.99l-.02.28c-3.14,0-6.28.05-9.41-.03-1.12-.03-1.59.35-1.85,1.43-3.86,15.67-7.75,31.33-11.67,46.99-.28,1.11,0,1.49,1.1,1.48,2.94-.02,5.87-.03,8.81,0,.97.01,1.43-.34,1.67-1.32,1.06-4.46,2.21-8.91,3.3-13.37.83-3.42.81-3.44,4.34-3.43,4.55.01,9.09.13,13.53-1.21,8.81-2.66,14.52-10.25,14.29-19.34-.03-1.37-.42-2.82-.99-4.07-1.87-4.09-5.53-5.88-9.66-6.45-4.44-.61-8.95-.67-13.43-.97ZM234.26,27.2c-3.31,13.43-6.56,26.61-9.85,39.96.71.04,1.2.09,1.7.09,3.39,0,6.78-.06,10.17.04,1.3.04,1.72-.48,1.99-1.63,2.98-12.34,6.03-24.67,9.01-37.02.26-1.09.67-1.49,1.82-1.46,2.93.08,5.87.03,8.8.03,3.89,0,3.91,0,4.85-3.75.53-2.12,1.02-4.25,1.57-6.54-.97-.05-1.67-.11-2.36-.11-12.04,0-24.08,0-36.12,0-.76,0-1.53-.06-2.27.04-.38.05-.95.35-1.03.65-.86,3.14-1.64,6.31-2.51,9.72h14.24ZM345.06,66.83c.33.13.51.27.69.27,3.74.02,7.49.07,11.23-.03.43-.01,1.1-.79,1.23-1.32,2.27-9.05,4.48-18.11,6.7-27.17.69-2.83,1.38-5.65,2.12-8.67-.69-.06-1.17-.13-1.66-.13-3.24-.01-6.48.03-9.71-.03-1.17-.02-1.65.36-1.93,1.54-2.14,8.92-4.37,17.82-6.56,26.73-.72,2.92-1.39,5.85-2.1,8.81ZM370.25,17.13c-4.36,0-8.35-.01-12.33.02-.27,0-.72.29-.79.53-.75,2.74-1.44,5.51-2.21,8.51,4.33,0,8.36.01,12.38-.02.27,0,.71-.32.78-.56.73-2.71,1.39-5.43,2.16-8.48Z"/>
      <path class="cls-1" d="M330.14,256.03c-2.41-2.23-4.8-4.39-7.14-6.61-14.45-13.79-27.88-28.48-39.41-44.84-5.28-7.49-9.88-15.36-13.61-23.77-5.63-12.71-5.89-25.66-1.51-38.6,8.35-24.67,25.47-39.99,51.14-44.47,35.05-6.12,66.59,17.28,73.83,49.97,3.21,14.48.33,27.71-6.52,40.47-7.08,13.18-16.1,24.97-25.82,36.25-9.42,10.93-19.47,21.26-30.18,30.94-.22.2-.45.38-.79.66ZM330.03,231c.63-.59,1.01-.92,1.35-1.28,5.05-5.45,10.24-10.78,15.12-16.38,8.93-10.22,17.17-20.95,23.8-32.85,5.07-9.1,7.54-18.43,5.29-29.04-4.9-23.03-28.51-39.8-51.83-35.95-18.81,3.1-31.47,13.87-37.76,31.88-2.12,6.07-3.02,12.39-1.68,18.8,1.13,5.39,3.49,10.32,6.17,15.09,7.12,12.68,16.12,23.98,25.73,34.81,4.46,5.03,9.12,9.87,13.81,14.93Z"/>
      <path class="cls-1" d="M293.29,238.83h-2c-74.5,0-149.01.28-223.51-.15-26.65-.15-46.64-13.01-59.73-36.21C2.41,192.47,0,181.53,0,170.04c.02-36.47,0-72.94,0-109.41,0-.7,0-1.39,0-2.08,6.01-.07,11.87,3.43,13.89,9.52.8,2.42,1.12,5.01,1.46,7.55.27,1.94.33,3.93.33,5.9.02,29.64.01,59.28.01,88.92,0,25.63,18.48,47.58,43.8,51.88,3.17.54,6.43.84,9.65.84,69.8.05,139.59.04,209.39,0,1.41,0,2.3.43,3.17,1.51,3.42,4.26,6.95,8.43,10.44,12.64.32.38.6.8,1.14,1.51Z"/>
      <path class="cls-1" d="M144.49,148.89c-.21,28.87-23.34,52.04-52.26,51.97-28.62-.07-51.97-23.03-51.92-52.11.05-28.86,23.14-51.96,52.07-51.96,29.13,0,51.98,23.4,52.11,52.11ZM92.3,186.17c20.45,0,37.45-16.71,37.46-36.82.01-20.95-16.59-37.89-37.14-37.9-20.72-.01-37.62,16.73-37.63,37.28,0,20.59,16.78,37.44,37.31,37.44Z"/>
      <path class="cls-1" d="M237.59,171.51c3.89,2.97,7.7,5.87,11.5,8.78-10.39,14.8-31.36,24.18-52.64,19.29-23.4-5.38-40.07-25.59-40.63-48.98-.58-24.26,14.69-45.27,37.77-51.83,22-6.25,44.12,2.73,55.54,18.54-3.8,2.9-7.6,5.81-11.53,8.81-8.44-10.29-19.24-15.45-32.55-14.53-10.72.75-19.52,5.55-26.34,13.87-12.59,15.37-10.48,38.41,4.57,51.5,15.57,13.54,40.23,12.42,54.31-5.45Z"/>
      <path class="cls-1" d="M486.27,185.8v15.46h-1.78c-9.77,0-19.53,0-29.3,0-20.34,0-38.64-14.64-42.9-34.49-.73-3.38-1.1-6.9-1.12-10.36-.11-19.27-.03-38.53-.09-57.8,0-1.56.42-1.97,1.95-1.92,3.89.11,7.79.04,11.69.04q1.94,0,1.94,2.01c0,19.27,0,38.53,0,57.8,0,13.97,9.28,25.59,22.93,28.58,2.01.44,4.11.64,6.16.66,9.46.07,18.92.03,28.39.03.65,0,1.3,0,2.13,0Z"/>
      <path class="cls-1" d="M439.96,56.98c.75-3.19,1.41-6.19,2.21-9.15.12-.43.89-.97,1.37-.98,3.03-.07,6.07-.08,9.1.03,2.61.1,4.16,1.19,4.61,2.96.48,1.92-.63,4.69-2.52,5.75-1.13.63-2.42,1.27-3.66,1.33-3.62.18-7.25.06-11.1.06Z"/>
      <path class="cls-1" d="M444.87,36.93c.73-3.02,1.4-5.95,2.18-8.84.09-.33.84-.67,1.3-.68,2.62-.06,5.25-.1,7.87,0,1.74.07,3.71.09,4.42,2.17.68,1.99-.65,5.15-2.52,6.2-.91.51-1.95,1.05-2.94,1.09-3.36.14-6.73.05-10.3.05Z"/>
      <path class="cls-1" d="M330,49.88c-.64,5.71-4.8,9.68-10.13,9.86-.5.02-1-.11-1.49-.19-1.49-.26-2.99-.69-3.45-2.3-.45-1.59.49-2.89,1.66-3.8,3.95-3.07,8.59-3.54,13.41-3.57Z"/>
      <path class="cls-1" d="M401.45,38.79c.85-3.53,1.62-6.86,2.47-10.16.07-.28.69-.61,1.05-.61,2.93-.02,5.87-.1,8.78.1,2.65.17,4.28,1.74,4.09,3.76-.26,2.79-1.47,5.07-4.25,6.08-1.26.46-2.64.73-3.98.8-2.61.12-5.24.04-8.17.04Z"/>
      <path class="cls-1" d="M329.08,180.61c-12.39,0-22.22-9.85-22.19-22.23.02-12.43,9.91-22.24,22.4-22.23,12.28,0,22.07,9.96,22.12,22.36.05,12.45-10.49,22.46-22.33,22.1Z"/>
    </g>
  </g>
</svg>