<?xml version="1.0" encoding="UTF-8"?>
<svg id="Layer_2" data-name="Layer 2" xmlns="http://www.w3.org/2000/svg" viewBox="0 0 832.22 251.09">
  <defs>
    <style>
      .cls-1 {
        fill: #519acb;
        stroke-width: 0px;
      }
    </style>
  </defs>
  <g id="Layer_1-2" data-name="Layer 1">
    <g>
      <g>
        <path class="cls-1" d="M272.02,154.74h0l-60.64,56.21-22.24,20.6h0c-2.59,2.98-5.48,5.67-8.63,8.04-9.61,7.22-21.55,11.51-34.47,11.51-15.28,0-29.19-5.97-39.49-15.74-1.8-1.74-3.51-3.57-5.08-5.51,0,0,0-.03-.03-.03l-19.94-21.51-15.15-16.37-51.43-55.46L.2,120.59c-.26-.26-.26-.72,0-.98,5.05-5.35,11.09-9.74,17.81-12.95,7.87-3.77,16.66-5.87,25.94-5.87,14.76,0,28.24,5.28,38.73,14.1,3.12,2.62,5.97,5.54,8.53,8.76h.03c.82.85,1.54,1.8,2.1,2.82.82,1.57,1.28,3.35,1.28,5.25,0,6.23-5.05,11.28-11.25,11.28-2.98,0-5.71-1.15-7.71-3.05-.95-.89-1.74-1.94-2.33-3.08-.03,0-.07-.1-.1-.13-6.99-8.4-17.51-13.71-29.29-13.71-2.92,0-5.74.33-8.46.95-.56.13-.75.79-.39,1.18l44.87,48.41,9.45,10.2,27.16,29.32,7.77,8.4s.07.07.1.1c5.97,4.59,13.41,7.35,21.55,7.35,5.31,0,10.33-1.18,14.86-3.28,1.28-.59,2.49-1.25,3.67-1.97,0-.03.07-.07.13-.1l9.84-9.12,11.05-10.23,17.64-16.33,3.35-3.12,49.62-45.95s.3-.26.46-.43l.2-.2c2.39-2.07,5.67-3.15,9.22-2.59,4.89.79,8.72,4.79,9.31,9.71.39,3.71-.95,7.08-3.31,9.41h0Z"/>
        <g>
          <g>
            <path class="cls-1" d="M250.44,18.96h.03l-69.37,64.28-28.63,26.53-5.02,4.66-3.74,3.44-23.91,22.17c-.43.39-1.12.13-1.21-.43-.3-2.2-.43-4.43-.43-6.69,0-13.38,5.15-25.55,13.58-34.67h0l5.74-5.35,16.43-15.22L234.24,3.31h0l.89-.82h.03C237.09.92,239.55,0,242.21,0,248.44,0,253.49,5.05,253.49,11.25c0,3.02-1.18,5.71-3.05,7.71Z"/>
            <path class="cls-1" d="M285.46,94.59h0l-58.25,54.02-20.86,19.32-5.02,4.66h0c-.26.23-.52.46-.79.66-.13.1-.26.2-.43.3l-.07.07h0c-.39.3-.82.59-1.25.92-.33.23-.69.49-1.02.72-.92.62-1.87,1.21-2.82,1.77-.26.16-.52.3-.82.46-.26.13-.49.26-.75.39-.26.16-.56.3-.82.43-.62.33-1.28.62-1.9.92-.3.13-.59.26-.89.39-.3.13-.59.26-.89.39-.3.13-.59.23-.92.36-.36.13-.72.3-1.08.43s-.72.26-1.12.39c-.33.13-.69.23-1.02.33-.43.13-.85.26-1.28.39-.69.2-1.41.39-2.1.56h-.16c-.36.1-.75.16-1.12.26-.39.1-.79.16-1.18.23-1.05.2-2.13.36-3.18.52-.23,0-.46.07-.69.07-.16.07-.33.1-.46.1-.26,0-.49.07-.75.07h-.13c-.36,0-.72.07-1.08.07-.3,0-.62,0-.92.07h-5.94c-.39,0-.75-.07-1.15-.1-.3,0-.62-.07-.92-.1h-.43c-.16,0-.33,0-.49-.07h-.36c-.13,0-.3,0-.43-.07-.36-.07-.72-.1-1.08-.16l-1.08-.2h-.07l-1.08-.2c-.59-.13-.79-.82-.36-1.25l.36-.36,17.42-16.14,8.1-7.48,1.97-1.84.89-.82,3.64-3.38,12.69-11.74,16.17-14.99,49.82-46.15c2.43-2.49,5.97-3.87,9.84-3.28,4.92.75,8.79,4.76,9.41,9.68.56,3.74-.79,7.15-3.15,9.48l-.03-.1Z"/>
          </g>
          <path class="cls-1" d="M219.84,126.27c-.07-.59-.79-.85-1.21-.43l-15.15,14.04-12.66,11.74h0c-.85,1.02-1.8,1.97-2.79,2.82-.56.49-1.15.95-1.74,1.38-.89.66-1.84,1.28-2.82,1.84-2.53,1.48-5.31,2.56-8.26,3.15-2.43.52-4.95.72-7.51.59-3.21-.16-6.3-.89-9.15-2.07-2.2-.92-4.26-2.07-6.17-3.48-6.89-5.12-11.41-13.22-11.64-22.3-.1-4.92,1.02-9.58,3.12-13.64,1.02-1.97,2.23-3.8,3.67-5.48,1.48-1.74,3.15-3.28,4.99-4.62h.07l27.62-25.58c.43-.39.23-1.12-.33-1.21-3.41-.72-6.92-1.08-10.56-1.08-6.49,0-12.69,1.21-18.4,3.41-4.82,1.87-9.31,4.43-13.28,7.61-2.07,1.64-4,3.41-5.77,5.35-8.43,9.12-13.58,21.29-13.58,34.67,0,2.72.23,5.41.62,8.04,3.25,20.47,18.63,36.86,38.57,41.62.79.2,1.61.36,2.43.52h.07l1.08.2c.36.07.72.1,1.08.16.13,0,.26,0,.43.07h.36c.16,0,.33,0,.49.07h.43c.3,0,.62.07.92.1.36,0,.75.07,1.15.1h5.94c.3,0,.62,0,.92-.07.36,0,.72,0,1.08-.07h.13c.26,0,.52,0,.75-.07h.43c.23,0,.46-.07.69-.07,1.08-.13,2.13-.3,3.18-.52.39-.07.79-.16,1.18-.23.36-.07.75-.16,1.12-.26h.16c.69-.16,1.41-.36,2.1-.56.43-.13.85-.26,1.28-.39.36-.1.69-.23,1.02-.33.36-.13.72-.26,1.12-.39.36-.13.72-.26,1.08-.43.3-.13.62-.23.92-.36s.59-.26.89-.39c.3-.13.59-.26.89-.39.66-.3,1.28-.62,1.9-.92.26-.13.56-.3.82-.43.23-.13.49-.26.75-.39.26-.16.52-.3.82-.46.98-.56,1.9-1.15,2.82-1.77.36-.23.69-.46,1.02-.72.43-.3.82-.59,1.25-.92h0l.07-.07s.26-.2.43-.3c.26-.2.52-.43.79-.62,1.77-1.44,3.48-3.02,5.05-4.66,4.07-4.33,7.41-9.35,9.77-14.89,2.66-6.17,4.13-12.99,4.13-20.14-.07-2.39-.2-4.62-.49-6.79l-.03.03Z"/>
        </g>
        <g>
          <path class="cls-1" d="M269.3,57.72h.03l-54.11,49.03-28.63,26.53-5.02,4.66-3.57,3.31-19.51,18.07-4.53,4.2c-.43.39-1.12.13-1.21-.43-.3-2.2-.43-4.43-.43-6.69v-1.84c0-.39,0-.79.07-1.18,0-.39.07-.82.1-1.21s.07-.82.1-1.21c0-.36.07-.75.13-1.12v-.16c0-.36.1-.72.16-1.12.07-.36.1-.69.16-1.02,0-.1,0-.23.07-.33.07-.33.13-.66.2-1.02s.16-.72.23-1.08v-.2c.07-.33.16-.69.23-1.02.07-.33.16-.62.23-.95.07-.2.1-.39.16-.59l.2-.69c.49-1.57,1.05-3.15,1.67-4.66.1-.3.23-.56.36-.85h0c.16-.39.3-.72.46-1.08.82-1.77,1.74-3.48,2.72-5.15.2-.33.39-.62.59-.95.2-.33.43-.66.62-.95.43-.62.85-1.28,1.31-1.87.46-.62.92-1.21,1.41-1.8.72-.89,1.44-1.74,2.23-2.59h0l5.74-5.35,18.6-16.99,62.84-57.36h0l.89-.82h.03c1.94-1.51,4.39-2.46,7.05-2.46,6.23,0,11.28,5.05,11.28,11.25.1,2.95-1.08,5.67-2.98,7.67h.13Z"/>
          <path class="cls-1" d="M201.27,184.91h-.2c-4.82-.39-9.28-2-13.12-4.49-5.51-3.57-9.71-8.95-11.74-15.25-.46-1.41-.79-2.82-1.05-4.33-.3-1.74-.39-3.54-.33-5.38.16-4.99,1.61-9.68,4.03-13.68.82-1.34,1.74-2.62,2.75-3.84,1.48-1.74,3.15-3.28,4.99-4.62h.07l27.62-25.58c.43-.39.23-1.12-.33-1.21-3.41-.72-6.92-1.08-10.56-1.08-5.71,0-11.18.92-16.3,2.66-5.64,1.9-10.82,4.76-15.38,8.36-2.07,1.64-4,3.41-5.77,5.35-.79.85-1.54,1.71-2.26,2.59-.49.59-.95,1.21-1.41,1.8-.46.62-.89,1.25-1.31,1.87-.2.33-.43.66-.62.95-.2.3-.39.62-.59.95-1.02,1.64-1.9,3.38-2.72,5.15-.16.36-.33.69-.46,1.05h0c-.13.3-.23.59-.36.89-.62,1.51-1.18,3.08-1.67,4.66l-.2.69c-.07.2-.1.39-.16.59-.1.3-.16.62-.23.95-.1.33-.16.69-.23,1.02v.2c-.07.36-.16.72-.23,1.08-.07.33-.13.66-.2,1.02,0,.1,0,.23-.07.33-.07.33-.1.69-.16,1.02-.07.36-.1.72-.16,1.12v.16c-.07.39-.1.75-.13,1.12,0,.39-.07.82-.1,1.21s-.07.82-.1,1.21,0,.79-.07,1.18v1.84c0,2.72.23,5.41.62,8.04.95,6,2.95,11.68,5.84,16.82.33.59.69,1.21,1.05,1.8,5.38,8.79,13.38,15.81,22.86,20.04.79.33,1.57.69,2.36.98.26.1.56,0,.75-.13l17.32-16.04,1.84-1.71c.49-.46.13-1.28-.52-1.25-1.15.07-2.2,0-3.25-.03l-.1-.07Z"/>
        </g>
        <path class="cls-1" d="M272.02,154.74h0l-60.64,56.21-22.24,20.6h0c-2.59,2.98-5.48,5.67-8.63,8.04-9.61,7.22-21.55,11.51-34.47,11.51-15.28,0-29.19-5.97-39.49-15.74-1.8-1.74-3.51-3.57-5.08-5.51,0,0,0-.03-.03-.03l-19.94-21.51-15.15-16.37-51.43-55.46L.2,120.59c-.26-.26-.26-.72,0-.98,5.05-5.35,11.09-9.74,17.81-12.95,7.87-3.77,16.66-5.87,25.94-5.87,14.76,0,28.24,5.28,38.73,14.1,3.12,2.62,5.97,5.54,8.53,8.76h.03c.82.85,1.54,1.8,2.1,2.82.82,1.57,1.28,3.35,1.28,5.25,0,6.23-5.05,11.28-11.25,11.28-2.98,0-5.71-1.15-7.71-3.05-.95-.89-1.74-1.94-2.33-3.08-.03,0-.07-.1-.1-.13-6.99-8.4-17.51-13.71-29.29-13.71-2.92,0-5.74.33-8.46.95-.56.13-.75.79-.39,1.18l44.87,48.41,9.45,10.2,27.16,29.32,7.77,8.4s.07.07.1.1c5.97,4.59,13.41,7.35,21.55,7.35,5.31,0,10.33-1.18,14.86-3.28,1.28-.59,2.49-1.25,3.67-1.97,0-.03.07-.07.13-.1l9.84-9.12,11.05-10.23,17.64-16.33,3.35-3.12,49.62-45.95s.3-.26.46-.43l.2-.2c2.39-2.07,5.67-3.15,9.22-2.59,4.89.79,8.72,4.79,9.31,9.71.39,3.71-.95,7.08-3.31,9.41h0Z"/>
        <path class="cls-1" d="M250.44,18.96h.03l-69.37,64.28-28.63,26.53-4.99,4.62-.07.07c-1.41,1.67-2.62,3.51-3.64,5.44h-.23c.07-.69.13-1.38.16-2.07,1.64-18.92,6.4-36.7,20.66-49.92,9.54-8.82,19.09-17.64,28.6-26.5,13.81-12.69,27.52-25.42,41.29-38.14l.89-.82h.03c1.9-1.54,4.36-2.46,7.02-2.46,6.23,0,11.28,5.05,11.28,11.25,0,3.02-1.18,5.71-3.05,7.71Z"/>
        <path class="cls-1" d="M285.46,94.59h0l-58.18,53.95s-.1.1-.16.13c-3.54,1.77-7.22,3.21-10.99,4.39-9.84,3.05-20.37,4.26-31.22,4.59h-1.51c.95-.56,1.9-1.15,2.79-1.8l.07-.07.85-.82,3.64-3.38,12.69-11.74,16.17-14.99,49.82-46.15c2.43-2.49,5.97-3.87,9.84-3.28,4.92.75,8.79,4.76,9.41,9.68.49,3.67-.85,7.08-3.21,9.41v.07Z"/>
        <path class="cls-1" d="M269.3,57.72h.03l-54.11,49.03-28.63,26.53-4.99,4.62-.07.07c-.98,1.15-1.87,2.39-2.66,3.71,0,.07-.07.1-.13.16-.75.66-1.18,1.05-1.18,1.05.13-.52.26-1.05.43-1.64,3.18-12.5,5.94-25.81,12.04-37.49,7.05-13.51,19.22-21.65,30.21-31.68,10.1-9.22,20.2-18.43,30.3-27.68.85-.79,1.71-1.57,2.59-2.36l.89-.82h.03c1.94-1.51,4.39-2.46,7.05-2.46,6.23,0,11.28,5.05,11.28,11.25,0,2.98-1.18,5.71-3.08,7.71Z"/>
        <path class="cls-1" d="M94.62,131.75c0,6.23-5.05,11.28-11.25,11.28-2.98,0-5.71-1.15-7.71-3.05-.95-.89-1.74-1.94-2.33-3.08-.03,0-.07-.1-.1-.13-6.99-8.4-17.51-13.71-29.29-13.71-1.34,0-2.66.07-3.97.2-.82.1-1.12-1.05-.36-1.38,14.3-6.23,26.76-9.54,42.87-6.99.13,0,.26.07.36.16,3.05,2.59,5.87,5.48,8.36,8.63h.03c.82.85,1.54,1.8,2.1,2.82.82,1.57,1.28,3.35,1.28,5.25Z"/>
        <path class="cls-1" d="M272.02,154.74h0l-60.54,56.15s-.13.1-.23.13c-17.22,6.59-36.14,12.1-46.31,14-.79.13-1.18-.89-.49-1.31v-.03s.07-.07.13-.1l9.84-9.12,11.05-10.23,17.64-16.33,3.35-3.12,49.62-45.95s.3-.26.46-.43l.2-.2c2.39-2.07,5.67-3.15,9.22-2.59,4.89.79,8.72,4.79,9.31,9.71.43,3.71-.92,7.08-3.28,9.41h.03Z"/>
      </g>
      <g>
        <g>
          <path class="cls-1" d="M356.77,87.11c-2.2,2.1-4.62,3.61-7.25,4.56-2.62.95-5.38,1.44-8.33,1.44s-5.54-.39-7.94-1.21c-2.39-.82-4.46-2-6.2-3.51-1.74-1.54-3.08-3.35-4.03-5.48s-1.44-4.53-1.44-7.18v-33.68h7.54v32.73c0,1.71.3,3.28.89,4.69s1.41,2.59,2.49,3.57,2.36,1.74,3.9,2.26,3.21.79,5.05.79,3.64-.3,5.35-.85c1.74-.56,3.41-1.38,5.05-2.46,3.28-2.1,4.89-4.72,4.89-7.9v-32.83h7.54v50.21h-7.54v-5.15s.03,0,.03,0Z"/>
          <path class="cls-1" d="M346.07,24.47h7.48v5.02h26.43v6.26h-33.91s0-11.28,0-11.28Z"/>
          <path class="cls-1" d="M406.94,59.1c0-1.77-.33-3.31-1.02-4.66s-1.64-2.49-2.85-3.41-2.69-1.64-4.39-2.13-3.54-.72-5.54-.72c-6.03,0-10.66,1.94-13.84,5.77v38.31h-7.54v-40.14c5.02-7.31,12.17-10.99,21.38-10.99,6.1,0,11.05,1.44,14.89,4.3,4.3,3.15,6.43,7.38,6.43,12.69v34.14h-7.54v-33.16h.03Z"/>
          <path class="cls-1" d="M455.39,88.09c-3.61,3.35-8.2,5.02-13.77,5.02-5.94,0-10.92-1.97-14.96-5.87-3.94-3.94-5.87-8.86-5.87-14.82,0-7.94,3.67-14.2,11.02-18.83l-6.26-8.4,6.13-3.87,9.68,12.27c-8.69,6.49-13.05,12.76-13.05,18.83,0,1.97.33,3.8.98,5.48.66,1.71,1.57,3.18,2.72,4.43,1.18,1.25,2.56,2.23,4.2,2.92s3.44,1.05,5.38,1.05c1.71,0,3.31-.26,4.76-.82s2.69-1.31,3.74-2.3c1.05-.98,1.84-2.13,2.43-3.48.56-1.34.85-2.75.85-4.33v-33.32h7.54v33.29c0,5.15-1.84,9.38-5.51,12.76h0Z"/>
          <path class="cls-1" d="M453.42,21.94h7.54v13.81h-7.54s0-13.81,0-13.81Z"/>
          <path class="cls-1" d="M488.9,61.23c0-3.97-1.02-7.12-3.08-9.51-2.07-2.36-5.08-3.54-9.05-3.54s-7.77,1.15-11.45,3.48v-7.9c3.15-1.77,7.08-2.62,11.84-2.62,6.36,0,11.25,1.8,14.66,5.44,3.12,3.05,4.66,7.28,4.66,12.63v33.03h-7.54v-30.99h-.03Z"/>
          <path class="cls-1" d="M545.97,67.1c0,3.71-.46,7.08-1.41,10.1-.95,3.02-2.39,5.71-4.39,8.1-4.1,5.18-9.71,7.77-16.82,7.77-4.79,0-9.08-1.41-12.92-4.23-4.17-2.98-6.92-7.05-8.26-12.2h7.67c2.62,6.3,7.12,9.45,13.55,9.45,4.85,0,8.66-1.97,11.41-5.94,1.18-1.77,2.1-3.74,2.72-5.9.62-2.2.95-4.56.95-7.15,0-5.08-1.21-9.41-3.67-13.05-2.79-3.94-6.59-5.87-11.41-5.87-6.49,0-10.92,3.15-13.32,9.45h-7.9c1.34-5.15,4.1-9.22,8.26-12.2,3.84-2.85,8.17-4.3,12.92-4.3,7.12,0,12.73,2.59,16.82,7.77,3.87,4.72,5.81,10.79,5.81,18.2h0Z"/>
          <path class="cls-1" d="M593.23,92.26l-13.05-37.88-13.05,37.88h-5.87l-13.41-50.21h7.67l9.45,35.13,12-35.13h6.69l12,35.13,9.45-35.13h7.67l-13.41,50.21h-6.13Z"/>
          <path class="cls-1" d="M652.72,72.02c-.62-1.15-1.44-2.23-2.49-3.21-1.05-.98-2.23-1.84-3.57-2.56-1.34-.69-2.82-1.25-4.46-1.64-1.61-.39-3.31-.62-5.05-.62-2.3,0-4.36.33-6.2.98-1.84.66-3.41,1.54-4.72,2.66-1.31,1.12-2.33,2.46-3.02,4-.72,1.54-1.08,3.21-1.08,5.02,0,1.28.23,2.46.69,3.54.46,1.12,1.05,2.07,1.84,2.92.79.85,1.71,1.51,2.75,2,1.05.49,2.23.72,3.51.72,2.62,0,5.12-.75,7.54-2.26l4.43,5.38c-3.15,2.56-7.12,3.87-11.94,3.87s-8.66-1.61-11.84-4.79c-2.98-3.12-4.46-6.92-4.46-11.41,0-5.31,2-9.9,6-13.81,4.17-3.94,9.68-5.87,16.56-5.87,6.43,0,11.61,1.77,15.58,5.28v-7.41c-.36-.89-.98-1.77-1.84-2.59-.85-.82-1.87-1.54-3.02-2.13-1.15-.62-2.43-1.08-3.84-1.44-1.38-.36-2.79-.52-4.23-.52-7.28,0-12.23,2.56-14.89,7.67h-8.04c.79-2.36,1.87-4.46,3.31-6.3,1.44-1.8,3.15-3.35,5.12-4.59s4.2-2.2,6.62-2.85,5.02-.98,7.74-.98c5.38,0,10,1.31,13.84,3.94,3.51,2.3,5.77,5.08,6.76,8.4v38.8h-7.54v-20.17h-.07Z"/>
          <path class="cls-1" d="M669.09,42.05h7.54v50.21h-7.54v-50.21Z"/>
          <path class="cls-1" d="M726.68,82.88c-.95,2.13-2.3,3.97-4,5.48-1.71,1.54-3.77,2.72-6.2,3.51-2.43.82-5.08,1.21-7.97,1.21s-5.71-.49-8.33-1.44-5.02-2.49-7.22-4.56v5.15h-7.54v-50.18h7.54v32.86c0,3.18,1.64,5.84,4.89,7.9,1.64,1.05,3.31,1.87,5.05,2.46,1.74.56,3.51.85,5.38.85s3.51-.26,5.05-.79c1.54-.52,2.82-1.28,3.9-2.26,1.05-.98,1.9-2.16,2.49-3.57.59-1.41.89-2.98.89-4.69v-32.73h7.54v33.65c-.03,2.62-.52,5.02-1.48,7.15h0Z"/>
          <path class="cls-1" d="M689.2,29.48h21.32v-6.26h6.26v6.26h3.8v-6.26h7.54v12.5h-38.93v-6.23h0Z"/>
          <path class="cls-1" d="M784.7,67.1c0,7.61-2.33,13.84-6.99,18.76-4.66,4.82-10.82,7.25-18.5,7.25s-13.81-2.39-18.46-7.25c-4.66-4.89-6.99-11.15-6.99-18.76,0-1.18,0-2.26.1-3.21.07-.95.2-1.84.39-2.66h19.68v7.05h-12.63c.13,2.62.66,5.02,1.61,7.22.95,2.2,2.2,4.07,3.77,5.64s3.41,2.79,5.54,3.67c2.13.89,4.46,1.31,6.99,1.31s5.02-.46,7.22-1.41,4.1-2.23,5.71-3.94c1.61-1.67,2.82-3.67,3.71-6s1.31-4.89,1.31-7.67-.43-5.28-1.28-7.61c-.85-2.33-2.07-4.33-3.64-6s-3.48-2.98-5.67-3.94c-2.2-.95-4.66-1.41-7.35-1.41-7.08,0-12.33,3.18-15.81,9.58h-8.17c4.66-11.09,12.66-16.63,23.97-16.63,7.71,0,13.91,2.43,18.5,7.28,4.66,4.95,6.99,11.18,6.99,18.73h0Z"/>
          <path class="cls-1" d="M832.22,66.61c0,4-.66,7.61-1.97,10.79-1.31,3.18-3.21,5.87-5.67,8.1-2.46,2.2-5.44,3.9-8.95,5.08-3.51,1.18-7.48,1.77-11.91,1.77-.95,0-1.87-.03-2.79-.07s-1.84-.1-2.79-.2l-11.51-40.44,7.41-2.2,10.3,36.11c3.02.13,5.81-.23,8.3-1.08,2.53-.85,4.66-2.07,6.43-3.71s3.15-3.64,4.13-6.03c.98-2.39,1.48-5.08,1.48-8.13,0-12.3-6.76-18.46-20.24-18.46h-1.67c-.56,0-1.12.03-1.67.13v-6.85c.72-.1,1.44-.13,2.13-.13h2.1c8.99,0,15.78,2.3,20.37,6.85,4.33,4.36,6.53,10.53,6.53,18.46Z"/>
        </g>
        <g>
          <path class="cls-1" d="M365.33,229.71c-7.41,0-14-1.25-19.78-3.77-5.77-2.53-10.59-6-14.5-10.5-3.9-4.46-6.85-9.74-8.86-15.84-1.97-6.1-2.98-12.66-2.98-19.71s.98-13.61,2.98-19.71,4.95-11.38,8.86-15.84c3.9-4.46,8.72-7.97,14.5-10.5,5.77-2.53,12.33-3.77,19.78-3.77,5.25,0,10.04.52,14.43,1.57,4.36,1.05,8.63,2.66,12.69,4.85l-4.56,14.14c-6.76-3.61-13.81-5.41-21.12-5.41-9.61,0-16.86,3.05-21.71,9.15-4.85,6.1-7.28,14.59-7.28,25.55s2.46,19.45,7.35,25.55,12.1,9.15,21.61,9.15c2.85,0,6.26-.46,10.2-1.44,3.94-.95,7.87-2.46,11.77-4.56l4.3,14.27c-3.8,2.2-8.07,3.87-12.79,5.08-4.69,1.15-9.64,1.74-14.89,1.74h0Z"/>
          <path class="cls-1" d="M441.55,183.89v14.56h-41.39v-14.56h41.39Z"/>
          <path class="cls-1" d="M479.95,229.71c-6.36,0-12.1-.66-17.12-1.94-5.05-1.28-9.58-3.08-13.58-5.35l4.72-15.12c3.41,1.9,7.31,3.51,11.64,4.85s8.63,2,12.92,2c5.41,0,10-1.08,13.71-3.21,3.71-2.13,5.58-5.44,5.58-9.94,0-2.2-.56-4.03-1.64-5.58-1.08-1.51-2.56-2.85-4.43-4-1.87-1.15-3.94-2.13-6.3-2.92-2.33-.82-4.72-1.64-7.22-2.49-2.95-.95-6.1-2.13-9.41-3.51-3.35-1.38-6.4-3.18-9.22-5.41-2.82-2.23-5.15-5.02-6.99-8.36-1.87-3.35-2.79-7.41-2.79-12.27,0-3.61.66-7.05,1.94-10.27,1.28-3.25,3.31-6.03,6.07-8.43,2.75-2.36,6.3-4.26,10.56-5.64,4.3-1.38,9.41-2.07,15.41-2.07,5.41,0,10.4.52,14.92,1.57s8.82,2.62,12.92,4.72l-4.72,14.27c-3.61-1.61-7.38-2.85-11.28-3.71-3.9-.85-7.51-1.28-10.86-1.28-5.71,0-9.94.98-12.69,2.98s-4.13,4.53-4.13,7.58c0,2.2.52,4.07,1.57,5.64,1.05,1.57,2.43,2.92,4.13,4.07,1.71,1.15,3.67,2.13,5.84,2.98,2.2.85,4.43,1.67,6.72,2.43,3.41,1.15,6.89,2.46,10.43,3.94,3.51,1.48,6.72,3.35,9.58,5.64s5.18,5.08,6.99,8.36,2.72,7.31,2.72,12.07-.92,9.05-2.79,12.56c-1.87,3.51-4.39,6.46-7.58,8.86-3.18,2.39-6.99,4.13-11.35,5.28-4.39,1.12-9.15,1.67-14.3,1.67h0Z"/>
          <path class="cls-1" d="M549.91,228h-18.56v-96.19h18.56v96.19Z"/>
          <path class="cls-1" d="M606.28,228h-18.56v-80.52l-27.55.3v-16h73.66v16l-27.55-.3v80.52h0Z"/>
          <path class="cls-1" d="M644.1,131.81h62.51v15.71h-44.54v23.55h41.82v15.71h-41.82v25.55h45.39v15.71h-63.4v-96.23h.03Z"/>
        </g>
      </g>
    </g>
  </g>
</svg>