<?xml version="1.0" encoding="UTF-8"?>
<svg id="Layer_2" data-name="Layer 2" xmlns="http://www.w3.org/2000/svg" viewBox="0 0 382.96 79.14">
  <defs>
    <style>
      .cls-1 {
        fill: #fff;
        stroke-width: 0px;
      }
    </style>
  </defs>
  <g id="Layer_1-2" data-name="Layer 1">
    <g>
      <path class="cls-1" d="M23.41,62.94c-4.58,0-8.62-.95-12.13-2.84-3.51-1.89-6.26-4.61-8.27-8.14-2.01-3.53-3.01-7.73-3.01-12.6V2.54h12.13v37.58c0,2.21.45,4.23,1.36,6.06.9,1.84,2.21,3.31,3.9,4.41s3.7,1.65,6.02,1.65,4.33-.55,6.02-1.65c1.7-1.1,3-2.57,3.9-4.41.9-1.84,1.36-3.86,1.36-6.06V2.54h12.13v37.58c0,2.21.45,4.23,1.36,6.06.9,1.84,2.21,3.31,3.9,4.41s3.7,1.65,6.02,1.65,4.33-.55,6.02-1.65c1.7-1.1,3-2.57,3.9-4.41.9-1.84,1.36-3.86,1.36-6.06V2.54h12.13v36.81c0,4.86-1,9.06-3.01,12.6-2.01,3.53-4.76,6.25-8.27,8.14-3.51,1.89-7.55,2.84-12.13,2.84-2.38,0-4.64-.3-6.79-.89-2.15-.59-4.1-1.48-5.85-2.67-1.75-1.19-3.34-2.6-4.75-4.24-1.36,1.64-2.93,3.04-4.71,4.2-1.78,1.16-3.73,2.05-5.85,2.67-2.12.62-4.37.93-6.74.93Z"/>
      <path class="cls-1" d="M108.82,61.92c-4.92,0-9.2-.95-12.85-2.84-3.65-1.89-6.48-4.48-8.48-7.76-2.01-3.28-3.01-6.96-3.01-11.03,0-4.58.93-8.57,2.8-11.96,1.87-3.39,4.41-6.02,7.63-7.89,3.22-1.87,6.87-2.8,10.94-2.8,4.86,0,8.81,1.02,11.83,3.05,3.02,2.04,5.24,4.76,6.66,8.18,1.41,3.42,2.12,7.22,2.12,11.41,0,.57-.03,1.23-.08,1.99-.06.76-.14,1.34-.25,1.74h-29.26c.45,1.75,1.23,3.22,2.33,4.41,1.1,1.19,2.49,2.08,4.16,2.67,1.67.59,3.55.89,5.64.89h12.04v9.92h-12.21ZM96.78,36.22h18.07c-.11-1.07-.31-2.08-.59-3.01-.28-.93-.68-1.77-1.19-2.5-.51-.73-1.1-1.36-1.78-1.87s-1.47-.9-2.38-1.19c-.91-.28-1.9-.42-2.97-.42-1.41,0-2.67.25-3.77.76-1.1.51-2.02,1.19-2.76,2.04-.74.85-1.31,1.81-1.74,2.88-.42,1.08-.72,2.18-.89,3.31Z"/>
      <path class="cls-1" d="M130.03,61.92V2.54h33.33c2.83,0,5.39.64,7.68,1.91s4.13,3.04,5.51,5.3c1.38,2.26,2.08,4.95,2.08,8.06,0,1.98-.4,3.86-1.19,5.64-.79,1.78-1.87,3.32-3.22,4.62-1.36,1.3-2.94,2.32-4.75,3.05,2.09.68,3.94,1.77,5.56,3.27,1.61,1.5,2.88,3.25,3.82,5.26.93,2.01,1.4,4.17,1.4,6.49,0,3.17-.72,5.94-2.16,8.31s-3.35,4.21-5.73,5.51c-2.37,1.3-5.03,1.95-7.97,1.95h-34.35ZM142.16,26.63h17.64c1.24,0,2.37-.3,3.39-.89,1.02-.59,1.82-1.4,2.42-2.42.59-1.02.89-2.15.89-3.39s-.3-2.38-.89-3.39-1.4-1.82-2.42-2.42c-1.02-.59-2.15-.89-3.39-.89h-17.64v13.4ZM142.16,51.23h18.75c1.36,0,2.57-.33,3.65-.98,1.07-.65,1.94-1.53,2.59-2.63.65-1.1.98-2.3.98-3.6s-.33-2.57-.98-3.65c-.65-1.07-1.51-1.94-2.59-2.59-1.07-.65-2.29-.98-3.65-.98h-18.75v14.42Z"/>
      <path class="cls-1" d="M205.85,61.92c-4.92,0-9.2-.95-12.85-2.84-3.65-1.89-6.48-4.48-8.48-7.76-2.01-3.28-3.01-6.96-3.01-11.03,0-4.58.93-8.57,2.8-11.96,1.87-3.39,4.41-6.02,7.63-7.89,3.22-1.87,6.87-2.8,10.94-2.8,4.86,0,8.81,1.02,11.83,3.05,3.02,2.04,5.24,4.76,6.66,8.18,1.41,3.42,2.12,7.22,2.12,11.41,0,.57-.03,1.23-.08,1.99-.06.76-.14,1.34-.25,1.74h-29.26c.45,1.75,1.23,3.22,2.33,4.41,1.1,1.19,2.49,2.08,4.16,2.67,1.67.59,3.55.89,5.64.89h12.04v9.92h-12.21ZM193.81,36.22h18.07c-.11-1.07-.31-2.08-.59-3.01-.28-.93-.68-1.77-1.19-2.5-.51-.73-1.1-1.36-1.78-1.87s-1.47-.9-2.38-1.19c-.91-.28-1.9-.42-2.97-.42-1.41,0-2.67.25-3.77.76-1.1.51-2.02,1.19-2.76,2.04-.74.85-1.31,1.81-1.74,2.88-.42,1.08-.72,2.18-.89,3.31Z"/>
      <path class="cls-1" d="M226.64,61.92V0h11.62v61.92h-11.62Z"/>
      <path class="cls-1" d="M264.97,62.94c-4.47,0-8.45-1-11.96-3.01-3.51-2.01-6.28-4.72-8.31-8.14-2.04-3.42-3.05-7.25-3.05-11.49s1.02-8.07,3.05-11.49c2.04-3.42,4.81-6.13,8.31-8.14,3.51-2.01,7.49-3.01,11.96-3.01s8.45,1,11.96,3.01c3.51,2.01,6.28,4.72,8.31,8.14,2.04,3.42,3.05,7.25,3.05,11.49s-1.02,8.07-3.05,11.49c-2.04,3.42-4.81,6.14-8.31,8.14-3.51,2.01-7.49,3.01-11.96,3.01ZM264.97,53.01c2.38,0,4.42-.57,6.15-1.7,1.72-1.13,3.05-2.66,3.99-4.58.93-1.92,1.4-4.07,1.4-6.45s-.47-4.52-1.4-6.45c-.93-1.92-2.26-3.45-3.99-4.58-1.73-1.13-3.77-1.7-6.15-1.7s-4.43.57-6.15,1.7c-1.73,1.13-3.05,2.66-3.99,4.58-.93,1.92-1.4,4.07-1.4,6.45s.47,4.52,1.4,6.45c.93,1.92,2.26,3.45,3.99,4.58,1.72,1.13,3.77,1.7,6.15,1.7Z"/>
      <path class="cls-1" d="M291.69,61.92v-24.85c0-3.56.83-6.81,2.5-9.75,1.67-2.94,4.08-5.29,7.25-7.04,3.17-1.75,6.96-2.63,11.37-2.63s8.27.88,11.41,2.63c3.14,1.75,5.54,4.1,7.21,7.04,1.67,2.94,2.5,6.19,2.5,9.75v24.85h-11.62v-24.85c0-1.75-.42-3.35-1.27-4.79-.85-1.44-1.99-2.59-3.44-3.44s-3.04-1.27-4.79-1.27-3.35.42-4.79,1.27-2.59,1.99-3.44,3.44c-.85,1.44-1.27,3.04-1.27,4.79v24.85h-11.62Z"/>
      <path class="cls-1" d="M346.4,79.14v-9.92h22.22c.79,0,1.44-.27,1.95-.81.51-.54.76-1.17.76-1.91v-10.6h-.08c-1.3,1.47-2.63,2.66-3.99,3.56-1.36.91-2.81,1.57-4.37,1.99-1.56.42-3.27.64-5.13.64-3.85,0-7.31-.92-10.39-2.76-3.08-1.84-5.53-4.42-7.34-7.76-1.81-3.34-2.71-7.21-2.71-11.62,0-4.18.89-7.96,2.67-11.32,1.78-3.36,4.37-6.04,7.76-8.02,3.39-1.98,7.52-2.97,12.38-2.97s8.74.96,12.13,2.88c3.39,1.92,6.02,4.64,7.89,8.14,1.87,3.51,2.8,7.66,2.8,12.47v25.7c0,3.79-1.09,6.79-3.27,8.99-2.18,2.21-5.19,3.31-9.03,3.31h-24.26ZM360.14,52.16c2.32,0,4.3-.54,5.94-1.61,1.64-1.07,2.9-2.5,3.77-4.28.88-1.78,1.31-3.77,1.31-5.98,0-2.38-.44-4.52-1.31-6.45-.88-1.92-2.13-3.45-3.77-4.58-1.64-1.13-3.62-1.7-5.94-1.7s-4.23.55-5.9,1.65c-1.67,1.1-2.94,2.59-3.82,4.45-.88,1.87-1.31,3.96-1.31,6.28s.44,4.31,1.31,6.15c.88,1.84,2.15,3.31,3.82,4.41,1.67,1.1,3.63,1.65,5.9,1.65Z"/>
    </g>
  </g>
</svg>