<?xml version="1.0" encoding="UTF-8"?>
<svg id="Layer_2" data-name="Layer 2" xmlns="http://www.w3.org/2000/svg" viewBox="0 0 98.88 98.88">
  <defs>
    <style>
      .cls-1 {
        fill: none;
      }

      .cls-1, .cls-2, .cls-3, .cls-4 {
        stroke-width: 0px;
      }

      .cls-2 {
        fill: #519acb;
      }

      .cls-3 {
        fill: #143f61;
      }

      .cls-4 {
        fill: #8aba8a;
      }
    </style>
  </defs>
  <g id="Layer_1-2" data-name="Layer 1">
    <g>
      <path class="cls-1" d="M49.44,71.89c-.79.53-1.92,1.21-3.15,1.92v18.26c1.04.08,2.09.13,3.15.13s2.11-.05,3.15-.13v-18.26c-1.24-.71-2.36-1.38-3.15-1.92Z"/>
      <path class="cls-4" d="M69.43,47.3h-5c-2.67,0-5.12.89-7.1,2.38v-.02s-.07.05-.17.14c-.46.36-.89.75-1.29,1.17-1.5,1.35-3.96,3.56-6.42,5.7,2.47,2.15,4.95,4.24,6.45,5.34,2.68,1.95,11.93,6.77,11.93,6.77,2.63,1.92,3.21,5.6,1.29,8.24s-5.6,3.21-8.24,1.29c0,0-4.63-2.41-8.28-4.5v18.26c15.88-1.16,29.35-10.99,35.7-24.79v-1.12c0-10.42-8.45-18.86-18.86-18.86Z"/>
      <path class="cls-2" d="M38,78.31c-2.63,1.92-6.32,1.34-8.24-1.29s-1.34-6.32,1.29-8.24c0,0,9.25-4.81,11.93-6.77,1.5-1.09,3.97-3.18,6.45-5.34-2.46-2.14-4.92-4.35-6.42-5.7-.4-.42-.83-.81-1.29-1.17-.1-.09-.16-.14-.16-.14v.02c-1.99-1.49-4.44-2.38-7.11-2.38h-5c-10.42,0-18.86,8.45-18.86,18.86v1.12c6.35,13.8,19.81,23.63,35.7,24.79v-18.26c-3.65,2.1-8.28,4.5-8.28,4.5Z"/>
      <path class="cls-3" d="M31.06,68.78c-2.63,1.92-3.21,5.6-1.29,8.24s5.6,3.21,8.24,1.29c0,0,4.63-2.41,8.28-4.5,1.24-.71,2.36-1.38,3.15-1.92.79.53,1.92,1.21,3.15,1.92,3.65,2.1,8.28,4.5,8.28,4.5,2.63,1.92,6.32,1.34,8.24-1.29s1.34-6.32-1.29-8.24c0,0-9.25-4.81-11.93-6.77-1.5-1.09-3.97-3.18-6.45-5.34-2.47,2.15-4.95,4.24-6.45,5.34-2.68,1.95-11.93,6.77-11.93,6.77Z"/>
      <circle class="cls-2" cx="31.18" cy="35.82" r="8.8" transform="translate(-11.33 14.66) rotate(-22.5)"/>
      <circle class="cls-4" cx="67.97" cy="35.82" r="8.8" transform="translate(-8.53 28.74) rotate(-22.5)"/>
      <path class="cls-2" d="M49.44,0C22.18,0,0,22.18,0,49.44c0,11.51,3.97,22.11,10.59,30.52,3.87,4.91,8.64,9.07,14.07,12.23,7.29,4.24,15.75,6.69,24.78,6.69s17.49-2.44,24.78-6.69c5.43-3.16,10.2-7.32,14.07-12.23,6.62-8.41,10.59-19.01,10.59-30.52C98.88,22.18,76.7,0,49.44,0ZM52.59,92.07c-1.04.08-2.09.13-3.15.13s-2.11-.05-3.15-.13c-15.88-1.16-29.35-10.99-35.7-24.79-2.5-5.43-3.9-11.47-3.9-17.84C6.69,25.83,25.83,6.69,49.44,6.69s42.75,19.14,42.75,42.75c0,6.37-1.4,12.41-3.9,17.84-6.35,13.8-19.81,23.63-35.7,24.79Z"/>
    </g>
  </g>
</svg>