<?xml version="1.0" encoding="UTF-8"?>
<svg id="Layer_2" data-name="Layer 2" xmlns="http://www.w3.org/2000/svg" xmlns:xlink="http://www.w3.org/1999/xlink" viewBox="0 0 2642.42 1739.67">
  <defs>
    <style>
      .cls-1 {
        fill: none;
      }

      .cls-1, .cls-2, .cls-3, .cls-4 {
        stroke-width: 0px;
      }

      .cls-2 {
        fill: url(#webelong_pattern);
      }

      .cls-3 {
        fill: #519acb;
      }

      .cls-4 {
        fill: #8aba8a;
      }
    </style>
    <pattern id="webelong_pattern" data-name="webelong pattern" x="0" y="0" width="380.26" height="404.05" patternTransform="translate(266.9 3379.72)" patternUnits="userSpaceOnUse" viewBox="0 0 380.26 404.05">
      <g>
        <rect class="cls-1" width="380.26" height="404.05"/>
        <g>
          <path class="cls-4" d="M373.71,47.08v-.9c0-8.44-6.84-15.28-15.28-15.28h-4.05c-2.16,0-4.15.72-5.75,1.93h0s-.05.03-.13.1c-.37.29-.72.61-1.05.95-1.21,1.1-3.21,2.88-5.2,4.62,2,1.75,4.01,3.44,5.22,4.32,2.17,1.58,9.66,5.48,9.66,5.48,2.13,1.55,2.6,4.54,1.05,6.67s-4.54,2.6-6.67,1.05c0,0-3.75-1.95-6.71-3.65v14.79c12.87-.94,23.78-8.9,28.92-20.08Z"/>
          <path class="cls-3" d="M332.97,56.02c-2.13,1.55-5.12,1.08-6.67-1.05s-1.08-5.12,1.05-6.67c0,0,7.49-3.9,9.66-5.48,1.21-.88,3.22-2.58,5.22-4.32-2-1.74-3.99-3.52-5.2-4.62-.33-.34-.67-.66-1.05-.95-.08-.07-.13-.12-.13-.12h0c-1.6-1.19-3.59-1.92-5.75-1.92h-4.05c-8.44,0-15.28,6.84-15.28,15.28v.9c5.14,11.18,16.05,19.14,28.92,20.08v-14.79c-2.96,1.7-6.71,3.65-6.71,3.65Z"/>
          <circle class="cls-3" cx="327.44" cy="20.78" r="7.13" transform="translate(37.98 175.25) rotate(-31.72)"/>
          <circle class="cls-4" cx="357.24" cy="20.78" r="7.13" transform="translate(42.43 190.91) rotate(-31.72)"/>
        </g>
        <g>
          <path class="cls-4" d="M278.64,47.08v-.9c0-8.44-6.84-15.28-15.28-15.28h-4.05c-2.16,0-4.15.72-5.75,1.93h0s-.05.03-.13.1c-.37.29-.72.61-1.05.95-1.21,1.1-3.21,2.88-5.2,4.62,2,1.75,4.01,3.44,5.22,4.32,2.17,1.58,9.66,5.48,9.66,5.48,2.13,1.55,2.6,4.54,1.05,6.67s-4.54,2.6-6.67,1.05c0,0-3.75-1.95-6.71-3.65v14.79c12.87-.94,23.78-8.9,28.92-20.08Z"/>
          <path class="cls-3" d="M237.9,56.02c-2.13,1.55-5.12,1.08-6.67-1.05s-1.08-5.12,1.05-6.67c0,0,7.49-3.9,9.66-5.48,1.21-.88,3.22-2.58,5.22-4.32-2-1.74-3.99-3.52-5.2-4.62-.33-.34-.67-.66-1.05-.95-.08-.07-.13-.12-.13-.12h0c-1.6-1.19-3.59-1.92-5.75-1.92h-4.05c-8.44,0-15.28,6.84-15.28,15.28v.9c5.14,11.18,16.05,19.14,28.92,20.08v-14.79c-2.96,1.7-6.71,3.65-6.71,3.65Z"/>
          <circle class="cls-3" cx="232.38" cy="20.78" r="7.13" transform="translate(23.78 125.27) rotate(-31.72)"/>
          <circle class="cls-4" cx="262.17" cy="20.78" r="7.13" transform="translate(28.23 140.94) rotate(-31.72)"/>
        </g>
        <g>
          <path class="cls-4" d="M183.58,47.08v-.9c0-8.44-6.84-15.28-15.28-15.28h-4.05c-2.16,0-4.15.72-5.75,1.93h0s-.05.03-.13.1c-.37.29-.72.61-1.05.95-1.21,1.1-3.21,2.88-5.2,4.62,2,1.75,4.01,3.44,5.22,4.32,2.17,1.58,9.66,5.48,9.66,5.48,2.13,1.55,2.6,4.54,1.05,6.67s-4.54,2.6-6.67,1.05c0,0-3.75-1.95-6.71-3.65v14.79c12.87-.94,23.78-8.9,28.92-20.08Z"/>
          <path class="cls-3" d="M142.84,56.02c-2.13,1.55-5.12,1.08-6.67-1.05s-1.08-5.12,1.05-6.67c0,0,7.49-3.9,9.66-5.48,1.21-.88,3.22-2.58,5.22-4.32-2-1.74-3.99-3.52-5.2-4.62-.33-.34-.67-.66-1.05-.95-.08-.07-.13-.12-.13-.12h0c-1.6-1.19-3.59-1.92-5.75-1.92h-4.05c-8.44,0-15.28,6.84-15.28,15.28v.9c5.14,11.18,16.05,19.14,28.92,20.08v-14.79c-2.96,1.7-6.71,3.65-6.71,3.65Z"/>
          <circle class="cls-3" cx="137.31" cy="20.78" r="7.13" transform="translate(9.58 75.29) rotate(-31.72)"/>
          <circle class="cls-4" cx="167.11" cy="20.78" r="7.13" transform="translate(14.03 90.96) rotate(-31.72)"/>
        </g>
        <g>
          <path class="cls-4" d="M88.51,47.08v-.9c0-8.44-6.84-15.28-15.28-15.28h-4.05c-2.16,0-4.15.72-5.75,1.93h0s-.05.03-.13.1c-.37.29-.72.61-1.05.95-1.21,1.1-3.21,2.88-5.2,4.62,2,1.75,4.01,3.44,5.22,4.32,2.17,1.58,9.66,5.48,9.66,5.48,2.13,1.55,2.6,4.54,1.05,6.67s-4.54,2.6-6.67,1.05c0,0-3.75-1.95-6.71-3.65v14.79c12.87-.94,23.78-8.9,28.92-20.08Z"/>
          <path class="cls-3" d="M47.77,56.02c-2.13,1.55-5.12,1.08-6.67-1.05s-1.08-5.12,1.05-6.67c0,0,7.49-3.9,9.66-5.48,1.21-.88,3.22-2.58,5.22-4.32-2-1.74-3.99-3.52-5.2-4.62-.33-.34-.67-.66-1.05-.95-.08-.07-.13-.12-.13-.12h0c-1.6-1.19-3.59-1.92-5.75-1.92h-4.05c-8.44,0-15.28,6.84-15.28,15.28v.9c5.14,11.18,16.05,19.14,28.92,20.08v-14.79c-2.96,1.7-6.71,3.65-6.71,3.65Z"/>
          <circle class="cls-3" cx="42.25" cy="20.78" r="7.13" transform="translate(-4.61 25.32) rotate(-31.72)"/>
          <circle class="cls-4" cx="72.05" cy="20.78" r="7.13" transform="translate(-.16 40.98) rotate(-31.72)"/>
        </g>
        <g>
          <path class="cls-4" d="M392.72,127.89v-.9c0-8.44-6.84-15.28-15.28-15.28h-4.05c-2.16,0-4.15.72-5.75,1.93h0s-.05.03-.13.1c-.37.29-.72.61-1.05.95-1.21,1.1-3.21,2.88-5.2,4.62,2,1.75,4.01,3.44,5.22,4.32,2.17,1.58,9.66,5.48,9.66,5.48,2.13,1.55,2.6,4.54,1.05,6.67s-4.54,2.6-6.67,1.05c0,0-3.75-1.95-6.71-3.65v14.79c12.87-.94,23.78-8.9,28.92-20.08Z"/>
          <path class="cls-3" d="M351.98,136.83c-2.13,1.55-5.12,1.08-6.67-1.05s-1.08-5.12,1.05-6.67c0,0,7.49-3.9,9.66-5.48,1.21-.88,3.22-2.58,5.22-4.32-2-1.74-3.99-3.52-5.2-4.62-.33-.34-.67-.66-1.05-.95-.08-.07-.13-.12-.13-.12h0c-1.6-1.19-3.59-1.92-5.75-1.92h-4.05c-8.44,0-15.28,6.84-15.28,15.28v.9c5.14,11.18,16.05,19.14,28.92,20.08v-14.79c-2.96,1.7-6.71,3.65-6.71,3.65Z"/>
          <circle class="cls-3" cx="346.46" cy="101.59" r="7.13" transform="translate(-1.67 197.31) rotate(-31.72)"/>
          <circle class="cls-4" cx="376.25" cy="101.59" r="7.13" transform="translate(2.78 212.98) rotate(-31.72)"/>
        </g>
        <g>
          <path class="cls-4" d="M297.65,127.89v-.9c0-8.44-6.84-15.28-15.28-15.28h-4.05c-2.16,0-4.15.72-5.75,1.93h0s-.05.03-.13.1c-.37.29-.72.61-1.05.95-1.21,1.1-3.21,2.88-5.2,4.62,2,1.75,4.01,3.44,5.22,4.32,2.17,1.58,9.66,5.48,9.66,5.48,2.13,1.55,2.6,4.54,1.05,6.67s-4.54,2.6-6.67,1.05c0,0-3.75-1.95-6.71-3.65v14.79c12.87-.94,23.78-8.9,28.92-20.08Z"/>
          <path class="cls-3" d="M256.92,136.83c-2.13,1.55-5.12,1.08-6.67-1.05s-1.08-5.12,1.05-6.67c0,0,7.49-3.9,9.66-5.48,1.21-.88,3.22-2.58,5.22-4.32-2-1.74-3.99-3.52-5.2-4.62-.33-.34-.67-.66-1.05-.95-.08-.07-.13-.12-.13-.12h0c-1.6-1.19-3.59-1.92-5.75-1.92h-4.05c-8.44,0-15.28,6.84-15.28,15.28v.9c5.14,11.18,16.05,19.14,28.92,20.08v-14.79c-2.96,1.7-6.71,3.65-6.71,3.65Z"/>
          <circle class="cls-3" cx="251.39" cy="101.59" r="7.13" transform="translate(-15.86 147.34) rotate(-31.72)"/>
          <circle class="cls-4" cx="281.19" cy="101.59" r="7.13" transform="translate(-11.41 163) rotate(-31.72)"/>
        </g>
        <g>
          <path class="cls-4" d="M202.59,127.89v-.9c0-8.44-6.84-15.28-15.28-15.28h-4.05c-2.16,0-4.15.72-5.75,1.93h0s-.05.03-.13.1c-.37.29-.72.61-1.05.95-1.21,1.1-3.21,2.88-5.2,4.62,2,1.75,4.01,3.44,5.22,4.32,2.17,1.58,9.66,5.48,9.66,5.48,2.13,1.55,2.6,4.54,1.05,6.67s-4.54,2.6-6.67,1.05c0,0-3.75-1.95-6.71-3.65v14.79c12.87-.94,23.78-8.9,28.92-20.08Z"/>
          <path class="cls-3" d="M161.85,136.83c-2.13,1.55-5.12,1.08-6.67-1.05s-1.08-5.12,1.05-6.67c0,0,7.49-3.9,9.66-5.48,1.21-.88,3.22-2.58,5.22-4.32-2-1.74-3.99-3.52-5.2-4.62-.33-.34-.67-.66-1.05-.95-.08-.07-.13-.12-.13-.12h0c-1.6-1.19-3.59-1.92-5.75-1.92h-4.05c-8.44,0-15.28,6.84-15.28,15.28v.9c5.14,11.18,16.05,19.14,28.92,20.08v-14.79c-2.96,1.7-6.71,3.65-6.71,3.65Z"/>
          <circle class="cls-3" cx="156.33" cy="101.59" r="7.13" transform="translate(-30.06 97.36) rotate(-31.72)"/>
          <circle class="cls-4" cx="186.12" cy="101.59" r="7.13" transform="translate(-25.61 113.02) rotate(-31.72)"/>
        </g>
        <g>
          <path class="cls-4" d="M107.53,127.89v-.9c0-8.44-6.84-15.28-15.28-15.28h-4.05c-2.16,0-4.15.72-5.75,1.93h0s-.05.03-.13.1c-.37.29-.72.61-1.05.95-1.21,1.1-3.21,2.88-5.2,4.62,2,1.75,4.01,3.44,5.22,4.32,2.17,1.58,9.66,5.48,9.66,5.48,2.13,1.55,2.6,4.54,1.05,6.67s-4.54,2.6-6.67,1.05c0,0-3.75-1.95-6.71-3.65v14.79c12.87-.94,23.78-8.9,28.92-20.08Z"/>
          <path class="cls-3" d="M66.79,136.83c-2.13,1.55-5.12,1.08-6.67-1.05s-1.08-5.12,1.05-6.67c0,0,7.49-3.9,9.66-5.48,1.21-.88,3.22-2.58,5.22-4.32-2-1.74-3.99-3.52-5.2-4.62-.33-.34-.67-.66-1.05-.95-.08-.07-.13-.12-.13-.12h0c-1.6-1.19-3.59-1.92-5.75-1.92h-4.05c-8.44,0-15.28,6.84-15.28,15.28v.9c5.14,11.18,16.05,19.14,28.92,20.08v-14.79c-2.96,1.7-6.71,3.65-6.71,3.65Z"/>
          <circle class="cls-3" cx="61.26" cy="101.59" r="7.13" transform="translate(-44.26 47.38) rotate(-31.72)"/>
          <circle class="cls-4" cx="91.06" cy="101.59" r="7.13" transform="translate(-39.81 63.04) rotate(-31.72)"/>
        </g>
        <g>
          <path class="cls-4" d="M12.46,127.89v-.9c0-8.44-6.84-15.28-15.28-15.28h-4.05c-2.16,0-4.15.72-5.75,1.93h0s-.05.03-.13.1c-.37.29-.72.61-1.05.95-1.21,1.1-3.21,2.88-5.2,4.62,2,1.75,4.01,3.44,5.22,4.32,2.17,1.58,9.66,5.48,9.66,5.48,2.13,1.55,2.6,4.54,1.05,6.67s-4.54,2.6-6.67,1.05c0,0-3.75-1.95-6.71-3.65v14.79c12.87-.94,23.78-8.9,28.92-20.08Z"/>
          <circle class="cls-4" cx="-4.01" cy="101.59" r="7.13" transform="translate(-54.01 13.07) rotate(-31.72)"/>
        </g>
        <g>
          <path class="cls-3" d="M370.99,217.64c-2.13,1.55-5.12,1.08-6.67-1.05s-1.08-5.12,1.05-6.67c0,0,7.49-3.9,9.66-5.48,1.21-.88,3.22-2.58,5.22-4.32-2-1.74-3.99-3.52-5.2-4.62-.33-.34-.67-.66-1.05-.95-.08-.07-.13-.12-.13-.12h0c-1.6-1.19-3.59-1.92-5.75-1.92h-4.05c-8.44,0-15.28,6.84-15.28,15.28v.9c5.14,11.18,16.05,19.14,28.92,20.08v-14.79c-2.96,1.7-6.71,3.65-6.71,3.65Z"/>
          <circle class="cls-3" cx="365.47" cy="182.4" r="7.13" transform="translate(-41.31 219.38) rotate(-31.72)"/>
        </g>
        <g>
          <path class="cls-4" d="M316.67,208.7v-.9c0-8.44-6.84-15.28-15.28-15.28h-4.05c-2.16,0-4.15.72-5.75,1.93h0s-.05.03-.13.1c-.37.29-.72.61-1.05.95-1.21,1.1-3.21,2.88-5.2,4.62,2,1.75,4.01,3.44,5.22,4.32,2.17,1.58,9.66,5.48,9.66,5.48,2.13,1.55,2.6,4.54,1.05,6.67s-4.54,2.6-6.67,1.05c0,0-3.75-1.95-6.71-3.65v14.79c12.87-.94,23.78-8.9,28.92-20.08Z"/>
          <path class="cls-3" d="M275.93,217.64c-2.13,1.55-5.12,1.08-6.67-1.05s-1.08-5.12,1.05-6.67c0,0,7.49-3.9,9.66-5.48,1.21-.88,3.22-2.58,5.22-4.32-2-1.74-3.99-3.52-5.2-4.62-.33-.34-.67-.66-1.05-.95-.08-.07-.13-.12-.13-.12h0c-1.6-1.19-3.59-1.92-5.75-1.92h-4.05c-8.44,0-15.28,6.84-15.28,15.28v.9c5.14,11.18,16.05,19.14,28.92,20.08v-14.79c-2.96,1.7-6.71,3.65-6.71,3.65Z"/>
          <circle class="cls-3" cx="270.4" cy="182.4" r="7.13" transform="translate(-55.51 169.4) rotate(-31.72)"/>
          <circle class="cls-4" cx="300.2" cy="182.4" r="7.13" transform="translate(-51.06 185.07) rotate(-31.72)"/>
        </g>
        <g>
          <path class="cls-4" d="M221.6,208.7v-.9c0-8.44-6.84-15.28-15.28-15.28h-4.05c-2.16,0-4.15.72-5.75,1.93h0s-.05.03-.13.1c-.37.29-.72.61-1.05.95-1.21,1.1-3.21,2.88-5.2,4.62,2,1.75,4.01,3.44,5.22,4.32,2.17,1.58,9.66,5.48,9.66,5.48,2.13,1.55,2.6,4.54,1.05,6.67s-4.54,2.6-6.67,1.05c0,0-3.75-1.95-6.71-3.65v14.79c12.87-.94,23.78-8.9,28.92-20.08Z"/>
          <path class="cls-3" d="M180.86,217.64c-2.13,1.55-5.12,1.08-6.67-1.05s-1.08-5.12,1.05-6.67c0,0,7.49-3.9,9.66-5.48,1.21-.88,3.22-2.58,5.22-4.32-2-1.74-3.99-3.52-5.2-4.62-.33-.34-.67-.66-1.05-.95-.08-.07-.13-.12-.13-.12h0c-1.6-1.19-3.59-1.92-5.75-1.92h-4.05c-8.44,0-15.28,6.84-15.28,15.28v.9c5.14,11.18,16.05,19.14,28.92,20.08v-14.79c-2.96,1.7-6.71,3.65-6.71,3.65Z"/>
          <circle class="cls-3" cx="175.34" cy="182.4" r="7.13" transform="translate(-69.71 119.42) rotate(-31.72)"/>
          <circle class="cls-4" cx="205.14" cy="182.4" r="7.13" transform="translate(-65.26 135.09) rotate(-31.72)"/>
        </g>
        <g>
          <path class="cls-4" d="M126.54,208.7v-.9c0-8.44-6.84-15.28-15.28-15.28h-4.05c-2.16,0-4.15.72-5.75,1.93h0s-.05.03-.13.1c-.37.29-.72.61-1.05.95-1.21,1.1-3.21,2.88-5.2,4.62,2,1.75,4.01,3.44,5.22,4.32,2.17,1.58,9.66,5.48,9.66,5.48,2.13,1.55,2.6,4.54,1.05,6.67s-4.54,2.6-6.67,1.05c0,0-3.75-1.95-6.71-3.65v14.79c12.87-.94,23.78-8.9,28.92-20.08Z"/>
          <path class="cls-3" d="M85.8,217.64c-2.13,1.55-5.12,1.08-6.67-1.05s-1.08-5.12,1.05-6.67c0,0,7.49-3.9,9.66-5.48,1.21-.88,3.22-2.58,5.22-4.32-2-1.74-3.99-3.52-5.2-4.62-.33-.34-.67-.66-1.05-.95-.08-.07-.13-.12-.13-.12h0c-1.6-1.19-3.59-1.92-5.75-1.92h-4.05c-8.44,0-15.28,6.84-15.28,15.28v.9c5.14,11.18,16.05,19.14,28.92,20.08v-14.79c-2.96,1.7-6.71,3.65-6.71,3.65Z"/>
          <circle class="cls-3" cx="80.28" cy="182.4" r="7.13" transform="translate(-83.9 69.44) rotate(-31.72)"/>
          <circle class="cls-4" cx="110.07" cy="182.4" r="7.13" transform="translate(-79.45 85.11) rotate(-31.72)"/>
        </g>
        <g>
          <path class="cls-4" d="M31.47,208.7v-.9c0-8.44-6.84-15.28-15.28-15.28h-4.05c-2.16,0-4.15.72-5.75,1.93h0s-.05.03-.13.1c-.37.29-.72.61-1.05.95-1.21,1.1-3.21,2.88-5.2,4.62,2,1.75,4.01,3.44,5.22,4.32,2.17,1.58,9.66,5.48,9.66,5.48,2.13,1.55,2.6,4.54,1.05,6.67s-4.54,2.6-6.67,1.05c0,0-3.75-1.95-6.71-3.65v14.79c12.87-.94,23.78-8.9,28.92-20.08Z"/>
          <circle class="cls-4" cx="15.01" cy="182.4" r="7.13" transform="translate(-93.65 35.13) rotate(-31.72)"/>
        </g>
        <g>
          <path class="cls-3" d="M390.01,298.45c-2.13,1.55-5.12,1.08-6.67-1.05s-1.08-5.12,1.05-6.67c0,0,7.49-3.9,9.66-5.48,1.21-.88,3.22-2.58,5.22-4.32-2-1.74-3.99-3.52-5.2-4.62-.33-.34-.67-.66-1.05-.95-.08-.07-.13-.12-.13-.12h0c-1.6-1.19-3.59-1.92-5.75-1.92h-4.05c-8.44,0-15.28,6.84-15.28,15.28v.9c5.14,11.18,16.05,19.14,28.92,20.08v-14.79c-2.96,1.7-6.71,3.65-6.71,3.65Z"/>
          <circle class="cls-3" cx="384.48" cy="263.21" r="7.13" transform="translate(-80.96 241.44) rotate(-31.72)"/>
        </g>
        <g>
          <path class="cls-4" d="M335.68,289.51v-.9c0-8.44-6.84-15.28-15.28-15.28h-4.05c-2.16,0-4.15.72-5.75,1.93h0s-.05.03-.13.1c-.37.29-.72.61-1.05.95-1.21,1.1-3.21,2.88-5.2,4.62,2,1.75,4.01,3.44,5.22,4.32,2.17,1.58,9.66,5.48,9.66,5.48,2.13,1.55,2.6,4.54,1.05,6.67s-4.54,2.6-6.67,1.05c0,0-3.75-1.95-6.71-3.65v14.79c12.87-.94,23.78-8.9,28.92-20.08Z"/>
          <path class="cls-3" d="M294.94,298.45c-2.13,1.55-5.12,1.08-6.67-1.05s-1.08-5.12,1.05-6.67c0,0,7.49-3.9,9.66-5.48,1.21-.88,3.22-2.58,5.22-4.32-2-1.74-3.99-3.52-5.2-4.62-.33-.34-.67-.66-1.05-.95-.08-.07-.13-.12-.13-.12h0c-1.6-1.19-3.59-1.92-5.75-1.92h-4.05c-8.44,0-15.28,6.84-15.28,15.28v.9c5.14,11.18,16.05,19.14,28.92,20.08v-14.79c-2.96,1.7-6.71,3.65-6.71,3.65Z"/>
          <circle class="cls-3" cx="289.42" cy="263.21" r="7.13" transform="translate(-95.15 191.47) rotate(-31.72)"/>
          <circle class="cls-4" cx="319.21" cy="263.21" r="7.13" transform="translate(-90.7 207.13) rotate(-31.72)"/>
        </g>
        <g>
          <path class="cls-4" d="M240.62,289.51v-.9c0-8.44-6.84-15.28-15.28-15.28h-4.05c-2.16,0-4.15.72-5.75,1.93h0s-.05.03-.13.1c-.37.29-.72.61-1.05.95-1.21,1.1-3.21,2.88-5.2,4.62,2,1.75,4.01,3.44,5.22,4.32,2.17,1.58,9.66,5.48,9.66,5.48,2.13,1.55,2.6,4.54,1.05,6.67s-4.54,2.6-6.67,1.05c0,0-3.75-1.95-6.71-3.65v14.79c12.87-.94,23.78-8.9,28.92-20.08Z"/>
          <path class="cls-3" d="M199.88,298.45c-2.13,1.55-5.12,1.08-6.67-1.05s-1.08-5.12,1.05-6.67c0,0,7.49-3.9,9.66-5.48,1.21-.88,3.22-2.58,5.22-4.32-2-1.74-3.99-3.52-5.2-4.62-.33-.34-.67-.66-1.05-.95-.08-.07-.13-.12-.13-.12h0c-1.6-1.19-3.59-1.92-5.75-1.92h-4.05c-8.44,0-15.28,6.84-15.28,15.28v.9c5.14,11.18,16.05,19.14,28.92,20.08v-14.79c-2.96,1.7-6.71,3.65-6.71,3.65Z"/>
          <circle class="cls-3" cx="194.35" cy="263.21" r="7.13" transform="translate(-109.35 141.49) rotate(-31.72)"/>
          <circle class="cls-4" cx="224.15" cy="263.21" r="7.13" transform="translate(-104.9 157.15) rotate(-31.72)"/>
        </g>
        <g>
          <path class="cls-4" d="M145.55,289.51v-.9c0-8.44-6.84-15.28-15.28-15.28h-4.05c-2.16,0-4.15.72-5.75,1.93h0s-.05.03-.13.1c-.37.29-.72.61-1.05.95-1.21,1.1-3.21,2.88-5.2,4.62,2,1.75,4.01,3.44,5.22,4.32,2.17,1.58,9.66,5.48,9.66,5.48,2.13,1.55,2.6,4.54,1.05,6.67s-4.54,2.6-6.67,1.05c0,0-3.75-1.95-6.71-3.65v14.79c12.87-.94,23.78-8.9,28.92-20.08Z"/>
          <path class="cls-3" d="M104.81,298.45c-2.13,1.55-5.12,1.08-6.67-1.05s-1.08-5.12,1.05-6.67c0,0,7.49-3.9,9.66-5.48,1.21-.88,3.22-2.58,5.22-4.32-2-1.74-3.99-3.52-5.2-4.62-.33-.34-.67-.66-1.05-.95-.08-.07-.13-.12-.13-.12h0c-1.6-1.19-3.59-1.92-5.75-1.92h-4.05c-8.44,0-15.28,6.84-15.28,15.28v.9c5.14,11.18,16.05,19.14,28.92,20.08v-14.79c-2.96,1.7-6.71,3.65-6.71,3.65Z"/>
          <circle class="cls-3" cx="99.29" cy="263.21" r="7.13" transform="translate(-123.55 91.51) rotate(-31.72)"/>
          <circle class="cls-4" cx="129.08" cy="263.21" r="7.13" transform="translate(-119.1 107.17) rotate(-31.72)"/>
        </g>
        <g>
          <path class="cls-4" d="M50.49,289.51v-.9c0-8.44-6.84-15.28-15.28-15.28h-4.05c-2.16,0-4.15.72-5.75,1.93h0s-.05.03-.13.1c-.37.29-.72.61-1.05.95-1.21,1.1-3.21,2.88-5.2,4.62,2,1.75,4.01,3.44,5.22,4.32,2.17,1.58,9.66,5.48,9.66,5.48,2.13,1.55,2.6,4.54,1.05,6.67s-4.54,2.6-6.67,1.05c0,0-3.75-1.95-6.71-3.65v14.79c12.87-.94,23.78-8.9,28.92-20.08Z"/>
          <path class="cls-3" d="M9.75,298.45c-2.13,1.55-5.12,1.08-6.67-1.05s-1.08-5.12,1.05-6.67c0,0,7.49-3.9,9.66-5.48,1.21-.88,3.22-2.58,5.22-4.32-2-1.74-3.99-3.52-5.2-4.62-.33-.34-.67-.66-1.05-.95-.08-.07-.13-.12-.13-.12h0c-1.6-1.19-3.59-1.92-5.75-1.92H2.82c-8.44,0-15.28,6.84-15.28,15.28v.9c5.14,11.18,16.05,19.14,28.92,20.08v-14.79c-2.96,1.7-6.71,3.65-6.71,3.65Z"/>
          <circle class="cls-3" cx="4.22" cy="263.21" r="7.13" transform="translate(-137.75 41.53) rotate(-31.72)"/>
          <circle class="cls-4" cx="34.02" cy="263.21" r="7.13" transform="translate(-133.3 57.2) rotate(-31.72)"/>
        </g>
        <g>
          <path class="cls-4" d="M354.69,370.32v-.9c0-8.44-6.84-15.28-15.28-15.28h-4.05c-2.16,0-4.15.72-5.75,1.93h0s-.05.03-.13.1c-.37.29-.72.61-1.05.95-1.21,1.1-3.21,2.88-5.2,4.62,2,1.75,4.01,3.44,5.22,4.32,2.17,1.58,9.66,5.48,9.66,5.48,2.13,1.55,2.6,4.54,1.05,6.67s-4.54,2.6-6.67,1.05c0,0-3.75-1.95-6.71-3.65v14.79c12.87-.94,23.78-8.9,28.92-20.08Z"/>
          <path class="cls-3" d="M313.95,379.26c-2.13,1.55-5.12,1.08-6.67-1.05s-1.08-5.12,1.05-6.67c0,0,7.49-3.9,9.66-5.48,1.21-.88,3.22-2.58,5.22-4.32-2-1.74-3.99-3.52-5.2-4.62-.33-.34-.67-.66-1.05-.95-.08-.07-.13-.12-.13-.12h0c-1.6-1.19-3.59-1.92-5.75-1.92h-4.05c-8.44,0-15.28,6.84-15.28,15.28v.9c5.14,11.18,16.05,19.14,28.92,20.08v-14.79c-2.96,1.7-6.71,3.65-6.71,3.65Z"/>
          <circle class="cls-3" cx="308.43" cy="344.02" r="7.13" transform="translate(-134.8 213.53) rotate(-31.72)"/>
          <circle class="cls-4" cx="338.23" cy="344.02" r="7.13" transform="translate(-130.35 229.19) rotate(-31.72)"/>
        </g>
        <g>
          <path class="cls-4" d="M259.63,370.32v-.9c0-8.44-6.84-15.28-15.28-15.28h-4.05c-2.16,0-4.15.72-5.75,1.93h0s-.05.03-.13.1c-.37.29-.72.61-1.05.95-1.21,1.1-3.21,2.88-5.2,4.62,2,1.75,4.01,3.44,5.22,4.32,2.17,1.58,9.66,5.48,9.66,5.48,2.13,1.55,2.6,4.54,1.05,6.67s-4.54,2.6-6.67,1.05c0,0-3.75-1.95-6.71-3.65v14.79c12.87-.94,23.78-8.9,28.92-20.08Z"/>
          <path class="cls-3" d="M218.89,379.26c-2.13,1.55-5.12,1.08-6.67-1.05s-1.08-5.12,1.05-6.67c0,0,7.49-3.9,9.66-5.48,1.21-.88,3.22-2.58,5.22-4.32-2-1.74-3.99-3.52-5.2-4.62-.33-.34-.67-.66-1.05-.95-.08-.07-.13-.12-.13-.12h0c-1.6-1.19-3.59-1.92-5.75-1.92h-4.05c-8.44,0-15.28,6.84-15.28,15.28v.9c5.14,11.18,16.05,19.14,28.92,20.08v-14.79c-2.96,1.7-6.71,3.65-6.71,3.65Z"/>
          <circle class="cls-3" cx="213.37" cy="344.02" r="7.13" transform="translate(-149 163.55) rotate(-31.72)"/>
          <circle class="cls-4" cx="243.16" cy="344.02" r="7.13" transform="translate(-144.55 179.22) rotate(-31.72)"/>
        </g>
        <g>
          <path class="cls-4" d="M164.56,370.32v-.9c0-8.44-6.84-15.28-15.28-15.28h-4.05c-2.16,0-4.15.72-5.75,1.93h0s-.05.03-.13.1c-.37.29-.72.61-1.05.95-1.21,1.1-3.21,2.88-5.2,4.62,2,1.75,4.01,3.44,5.22,4.32,2.17,1.58,9.66,5.48,9.66,5.48,2.13,1.55,2.6,4.54,1.05,6.67s-4.54,2.6-6.67,1.05c0,0-3.75-1.95-6.71-3.65v14.79c12.87-.94,23.78-8.9,28.92-20.08Z"/>
          <path class="cls-3" d="M123.83,379.26c-2.13,1.55-5.12,1.08-6.67-1.05s-1.08-5.12,1.05-6.67c0,0,7.49-3.9,9.66-5.48,1.21-.88,3.22-2.58,5.22-4.32-2-1.74-3.99-3.52-5.2-4.62-.33-.34-.67-.66-1.05-.95-.08-.07-.13-.12-.13-.12h0c-1.6-1.19-3.59-1.92-5.75-1.92h-4.05c-8.44,0-15.28,6.84-15.28,15.28v.9c5.14,11.18,16.05,19.14,28.92,20.08v-14.79c-2.96,1.7-6.71,3.65-6.71,3.65Z"/>
          <circle class="cls-3" cx="118.3" cy="344.02" r="7.13" transform="translate(-163.19 113.57) rotate(-31.72)"/>
          <circle class="cls-4" cx="148.1" cy="344.02" r="7.13" transform="translate(-158.74 129.24) rotate(-31.72)"/>
        </g>
        <g>
          <path class="cls-4" d="M69.5,370.32v-.9c0-8.44-6.84-15.28-15.28-15.28h-4.05c-2.16,0-4.15.72-5.75,1.93h0s-.05.03-.13.1c-.37.29-.72.61-1.05.95-1.21,1.1-3.21,2.88-5.2,4.62,2,1.75,4.01,3.44,5.22,4.32,2.17,1.58,9.66,5.48,9.66,5.48,2.13,1.55,2.6,4.54,1.05,6.67s-4.54,2.6-6.67,1.05c0,0-3.75-1.95-6.71-3.65v14.79c12.87-.94,23.78-8.9,28.92-20.08Z"/>
          <path class="cls-3" d="M28.76,379.26c-2.13,1.55-5.12,1.08-6.67-1.05s-1.08-5.12,1.05-6.67c0,0,7.49-3.9,9.66-5.48,1.21-.88,3.22-2.58,5.22-4.32-2-1.74-3.99-3.52-5.2-4.62-.33-.34-.67-.66-1.05-.95-.08-.07-.13-.12-.13-.12h0c-1.6-1.19-3.59-1.92-5.75-1.92h-4.05c-8.44,0-15.28,6.84-15.28,15.28v.9c5.14,11.18,16.05,19.14,28.92,20.08v-14.79c-2.96,1.7-6.71,3.65-6.71,3.65Z"/>
          <circle class="cls-3" cx="23.24" cy="344.02" r="7.13" transform="translate(-177.39 63.6) rotate(-31.72)"/>
          <circle class="cls-4" cx="53.03" cy="344.02" r="7.13" transform="translate(-172.94 79.26) rotate(-31.72)"/>
        </g>
      </g>
    </pattern>
  </defs>
  <g id="Swatch_Info_Layer" data-name="Swatch Info Layer">
    <rect class="cls-2" width="2642.42" height="1739.67"/>
  </g>
</svg>